<?xml version="1.0" encoding="UTF-8" standalone="no"?>
<svg
   xmlns:dc="http://purl.org/dc/elements/1.1/"
   xmlns:cc="http://creativecommons.org/ns#"
   xmlns:rdf="http://www.w3.org/1999/02/22-rdf-syntax-ns#"
   xmlns:svg="http://www.w3.org/2000/svg"
   xmlns="http://www.w3.org/2000/svg"
   xmlns:sodipodi="http://sodipodi.sourceforge.net/DTD/sodipodi-0.dtd"
   xmlns:inkscape="http://www.inkscape.org/namespaces/inkscape"
   sodipodi:docname="predmesti.svg"
   inkscape:version="0.92.4 (5da689c313, 2019-01-14)"
   id="svg8"
   version="1.1"
   viewBox="0 0 297 210"
   height="210mm"
   width="297mm">
  <defs
     id="defs2">
    <marker
       id="DistanceX"
       orient="auto"
       refX="0"
       refY="0"
       style="overflow:visible">
      <path
         d="M 3,-3 -3,3 M 0,-5 V 5"
         style="stroke:#000000;stroke-width:0.5"
         id="path833" />
    </marker>
    <pattern
       id="Hatch"
       patternUnits="userSpaceOnUse"
       width="8"
       height="8"
       x="0"
       y="0">
      <path
         d="M8 4 l-4,4"
         stroke="#000000"
         stroke-width="0.25"
         linecap="square"
         id="path836" />
      <path
         d="M6 2 l-4,4"
         stroke="#000000"
         stroke-width="0.25"
         linecap="square"
         id="path838" />
      <path
         d="M4 0 l-4,4"
         stroke="#000000"
         stroke-width="0.25"
         linecap="square"
         id="path840" />
    </pattern>
    <marker
       id="DistanceX-0"
       orient="auto"
       refX="0"
       refY="0"
       style="overflow:visible">
      <path
         d="M 3,-3 -3,3 M 0,-5 V 5"
         style="stroke:#000000;stroke-width:0.5"
         id="path868" />
    </marker>
    <pattern
       id="Hatch-3"
       patternUnits="userSpaceOnUse"
       width="8"
       height="8"
       x="0"
       y="0">
      <path
         d="M8 4 l-4,4"
         stroke="#000000"
         stroke-width="0.25"
         linecap="square"
         id="path871" />
      <path
         d="M6 2 l-4,4"
         stroke="#000000"
         stroke-width="0.25"
         linecap="square"
         id="path873" />
      <path
         d="M4 0 l-4,4"
         stroke="#000000"
         stroke-width="0.25"
         linecap="square"
         id="path875" />
    </pattern>
    <symbol
       id="*Model_Space" />
    <symbol
       id="*Paper_Space" />
    <symbol
       id="*Paper_Space0" />
  </defs>
  <sodipodi:namedview
     inkscape:window-maximized="1"
     inkscape:window-y="0"
     inkscape:window-x="0"
     inkscape:window-height="1182"
     inkscape:window-width="1920"
     showgrid="false"
     inkscape:document-rotation="0"
     inkscape:current-layer="layer1"
     inkscape:document-units="mm"
     inkscape:cy="408.96318"
     inkscape:cx="500.3469"
     inkscape:zoom="0.98994949"
     inkscape:pageshadow="2"
     inkscape:pageopacity="0.0"
     borderopacity="1.0"
     bordercolor="#666666"
     pagecolor="#ffffff"
     id="base" />
  <metadata
     id="metadata5">
    <rdf:RDF>
      <cc:Work
         rdf:about="">
        <dc:format>image/svg+xml</dc:format>
        <dc:type
           rdf:resource="http://purl.org/dc/dcmitype/StillImage" />
        <dc:title />
      </cc:Work>
    </rdf:RDF>
  </metadata>
  <g
     id="layer1"
     inkscape:groupmode="layer"
     inkscape:label="Layer 1">
    <g
       transform="scale(0.26458333)"
       inkscape:label="0"
       id="g847" />
    <g
       transform="matrix(0.26458333,0,0,0.26458333,-65.983355,42.732921)"
       id="g883"
       inkscape:label="0" />
    <g
       transform="matrix(0.26458333,0,0,0.26458333,-65.983355,42.732921)"
       id="g885"
       inkscape:label="fotopodklad" />
    <path
       d="m 193.0683,54.809209 -30.157,1.092645 -57.18625,17.670365 -14.491252,32.591331 -2.403819,39.11669 4.152051,6.7744 11.58203,4.58911 13.76733,4.15205 9.39675,-1.31117 14.20438,-12.67468 9.39675,-6.33734 18.1379,-5.90029 22.28995,-8.52263 5.90029,-6.77439 1.09264,-10.48939 -1.31117,-13.111783 -5.68176,-4.807638 -7.64851,-2.403819 -27.31612,-3.714993 -7.64851,-1.748232 -2.84088,-5.244695 3.49646,-10.052332 6.11881,-5.026166 10.92645,-1.966761 12.89321,-0.874116 14.85997,-0.655587"
       style="fill:none;stroke:#ff0000;stroke-width:0.26458299"
       id="path887"
       inkscape:connector-curvature="0" />
    <path
       d="m 150.41685,60.17752 -5.86198,5.776666 -2.62235,13.767326 -2.78876,14.640962 -1.80035,12.019616 4.15205,11.80056 8.08557,10.92645 7.21146,4.58911 5.9087,1.55985 3.3455,-0.27498"
       style="fill:none;stroke:#ff0000;stroke-width:0.26458299"
       id="path889"
       inkscape:connector-curvature="0" />
    <path
       d="m 197.43888,95.674127 -3.69557,-9.796582 -2.29824,-13.404481 -2.00466,-9.930195 -6.10074,-5.07417 -6.04208,-1.437192 -3.1425,-0.242412"
       style="fill:none;stroke:#ff0000;stroke-width:0.26458299"
       id="path891"
       inkscape:connector-curvature="0" />
    <path
       d="m 88.829979,145.28024 -0.335309,5.13901"
       style="fill:none;stroke:#ff0000;stroke-width:0.26458299"
       id="path893"
       inkscape:connector-curvature="0" />
    <path
       d="m 88.49467,150.41925 -2.119582,2.92159"
       style="fill:none;stroke:#ff0000;stroke-width:0.26458299"
       id="path895"
       inkscape:connector-curvature="0" />
    <path
       d="m 153.94672,60.17752 a 3.529871,3.529871 0 1 0 -7.05974,0 3.529871,3.529871 0 1 0 7.05974,0 z"
       style="fill:none;stroke:#000000;stroke-width:0.26458299"
       id="path897"
       inkscape:connector-curvature="0" />
    <path
       d="m 153.94672,60.17752 h -7.05974"
       style="fill:none;stroke:#000000;stroke-width:0.26458299"
       id="path899"
       inkscape:connector-curvature="0" />
    <path
       d="m 150.41685,60.17752 -2.16094,2.791113"
       style="fill:none;stroke:#000000;stroke-width:0.26458299"
       id="path901"
       inkscape:connector-curvature="0" />
    <path
       d="m 200.96875,95.674127 a 3.529871,3.529871 0 1 0 -7.05974,0 3.529871,3.529871 0 1 0 7.05974,0 z"
       style="fill:none;stroke:#000000;stroke-width:0.26458299"
       id="path903"
       inkscape:connector-curvature="0" />
    <path
       d="m 200.96875,95.674127 h -7.05974"
       style="fill:none;stroke:#000000;stroke-width:0.26458299"
       id="path905"
       inkscape:connector-curvature="0" />
    <path
       d="m 197.43888,95.674127 -2.16095,2.791113"
       style="fill:none;stroke:#000000;stroke-width:0.26458299"
       id="path907"
       inkscape:connector-curvature="0" />
    <path
       d="m 92.359849,145.28024 a 3.5298702,3.5298702 0 1 0 -7.059739,0 3.52987,3.52987 0 1 0 7.059739,0 z"
       style="fill:none;stroke:#000000;stroke-width:0.26458299"
       id="path909"
       inkscape:connector-curvature="0" />
    <path
       d="M 92.359849,145.28024 H 85.30011"
       style="fill:none;stroke:#000000;stroke-width:0.26458299"
       id="path911"
       inkscape:connector-curvature="0" />
    <path
       d="m 88.829979,145.28024 -2.160942,2.79112"
       style="fill:none;stroke:#000000;stroke-width:0.26458299"
       id="path913"
       inkscape:connector-curvature="0" />
    <path
       d="m 122.53853,70.925572 a 3.529871,3.529871 0 1 0 -7.05974,0 3.529871,3.529871 0 1 0 7.05974,0 z"
       style="fill:none;stroke:#000000;stroke-width:0.26458299"
       id="path915"
       inkscape:connector-curvature="0" />
    <path
       d="m 122.53853,70.925572 h -7.05974"
       style="fill:none;stroke:#000000;stroke-width:0.26458299"
       id="path917"
       inkscape:connector-curvature="0" />
    <path
       d="m 119.00866,70.925572 -2.16095,2.791113"
       style="fill:none;stroke:#000000;stroke-width:0.26458299"
       id="path919"
       inkscape:connector-curvature="0" />
    <path
       d="m 119.08921,69.442737 -11.50236,6.707355 -9.811866,15.92472"
       style="fill:none;stroke:#ff0000;stroke-width:0.26458299"
       id="path921"
       inkscape:connector-curvature="0" />
    <path
       d="m 86.968204,155.92408 6.713212,-8.32438 2.148227,-7.6083 -0.895094,-27.65843 2.237735,-10.29362 7.608306,-16.380242 5.28106,-6.086641 7.33977,-3.490871 22.19835,-7.339776 10.83065,-3.938417 2.98996,-1.050894"
       style="fill:none;stroke:#000000;stroke-width:0.26458299;stroke-dasharray:12.7, 6.35"
       id="path923"
       inkscape:connector-curvature="0" />
    <path
       d="m 95.829643,139.9914 c 0.05564,1.71929 1.273937,3.1782 2.508244,4.51001 1.874073,2.02212 3.785053,3.75124 5.970093,5.07459 3.39888,2.0585 7.46086,3.1352 11.71633,3.35818 4.33559,0.22718 8.872,-0.43183 12.08945,-2.8358 2.74121,-2.04814 4.525,-5.3629 6.94024,-7.985 1.71089,-1.85743 3.73862,-3.36727 5.89547,-4.62683 2.45905,-1.43604 5.08593,-2.54673 7.68651,-3.73131 3.06034,-1.39402 6.08426,-2.89035 9.17902,-4.10445 5.10191,-2.00151 10.39638,-3.23597 15.8954,-4.70145 4.40921,-1.17506 8.94994,-2.49864 12.08945,-5.52234 2.54633,-2.45241 4.17092,-6.0232 4.85071,-9.62679 0.69674,-3.69349 0.40097,-7.42146 -0.29851,-11.044724 -1.01437,-5.254363 -2.87772,-10.288561 -4.2537,-15.447635 -1.59188,-5.968611 -2.53142,-12.104354 -4.17907,-18.059552"
       style="fill:none;stroke:#000000;stroke-width:0.26458299;stroke-dasharray:12.7, 6.35"
       id="path933"
       inkscape:connector-curvature="0" />
    <path
       d="m 145.36292,87.001048 c -0.50458,2.678745 -1.10216,5.314948 -1.58581,8.022323 -0.9324,5.219399 -1.44136,10.703349 -0.0933,15.764839 1.40526,5.27621 4.82847,10.09337 8.76858,13.89914"
       style="fill:none;stroke:#000000;stroke-width:0.26458299;stroke-dasharray:12.7, 6.35"
       id="path935"
       inkscape:connector-curvature="0" />
    <path
       d="m 172.19522,55.620073 a 1.5067851,1.5067851 0 1 0 -3.01357,0 1.5067851,1.5067851 0 1 0 3.01357,0 z"
       style="fill:#00ff00;stroke:#00ff00;stroke-width:0.26458299"
       id="path943"
       inkscape:connector-curvature="0" />
    <path
       d="m 175.83278,60.202293 a 1.5067851,1.5067851 0 1 0 -3.01357,0 1.5067851,1.5067851 0 1 0 3.01357,0 z"
       style="fill:none;stroke:#00ff00;stroke-width:0.26458299"
       id="path947"
       inkscape:connector-curvature="0" />
    <path
       d="m 193.87502,78.147395 a 1.5067851,1.5067851 0 1 0 -3.01357,0 1.5067851,1.5067851 0 1 0 3.01357,0 z"
       style="fill:#00ff00;stroke:#00ff00;stroke-width:0.26458299"
       id="path951"
       inkscape:connector-curvature="0" />
    <path
       d="m 166.49688,85.862552 a 1.5067851,1.5067851 0 1 0 -3.01357,0 1.5067851,1.5067851 0 1 0 3.01357,0 z"
       style="fill:#00ff00;stroke:#00ff00;stroke-width:0.26458299"
       id="path955"
       inkscape:connector-curvature="0" />
    <path
       d="m 140.42454,96.470347 a 1.5067851,1.5067851 0 1 0 -3.01357,0 1.5067851,1.5067851 0 1 0 3.01357,0 z"
       style="fill:#00ff00;stroke:#00ff00;stroke-width:0.26458299"
       id="path959"
       inkscape:connector-curvature="0" />
    <path
       d="m 111.75658,71.161111 a 1.5067851,1.5067851 0 1 0 -3.01357,0 1.5067851,1.5067851 0 1 0 3.01357,0 z"
       style="fill:#00ff00;stroke:#00ff00;stroke-width:0.26458299"
       id="path963"
       inkscape:connector-curvature="0" />
    <path
       d="m 112.69168,74.05197 a 1.5067851,1.5067851 0 1 0 -3.01357,0 1.5067851,1.5067851 0 1 0 3.01357,0 z"
       style="fill:#00ff00;stroke:#00ff00;stroke-width:0.26458299"
       id="path967"
       inkscape:connector-curvature="0" />
    <path
       d="m 138.78726,69.508685 h -3.01357 z"
       style="fill:#00ff00;stroke-width:0.26458299"
       id="path969"
       inkscape:connector-curvature="0" />
    <path
       d="m 138.78726,69.508685 a 1.5067851,1.5067851 0 1 0 -3.01357,0 1.5067851,1.5067851 0 1 0 3.01357,0 z"
       style="fill:#00ff00;stroke:#00ff00;stroke-width:0.26458299"
       id="path971"
       inkscape:connector-curvature="0" />
    <path
       d="m 140.48246,63.297884 h -3.01357 z"
       style="fill:#00ff00;stroke-width:0.26458299"
       id="path973"
       inkscape:connector-curvature="0" />
    <path
       d="m 140.48246,63.297884 a 1.5067851,1.5067851 0 1 0 -3.01357,0 1.5067851,1.5067851 0 1 0 3.01357,0 z"
       style="fill:#00ff00;stroke:#00ff00;stroke-width:0.26458299"
       id="path975"
       inkscape:connector-curvature="0" />
    <path
       d="m 91.88262,120.12495 a 1.5067851,1.5067851 0 1 0 -3.01357,0 1.5067851,1.5067851 0 1 0 3.01357,0 z"
       style="fill:#00ff00;stroke:#00ff00;stroke-width:0.26458299"
       id="path979"
       inkscape:connector-curvature="0" />
    <path
       d="m 82.660743,156.37427 a 1.5067851,1.5067851 0 1 0 -3.01357,0 1.5067851,1.5067851 0 1 0 3.01357,0 z"
       style="fill:#00ff00;stroke:#00ff00;stroke-width:0.26458299"
       id="path983"
       inkscape:connector-curvature="0" />
    <path
       d="m 96.981652,129.0288 a 1.5067851,1.5067851 0 1 0 -3.01357,0 1.5067851,1.5067851 0 1 0 3.01357,0 z"
       style="fill:#00ff00;stroke:#00ff00;stroke-width:0.26458299"
       id="path987"
       inkscape:connector-curvature="0" />
    <path
       d="m 118.33139,160.7958 a 1.5067851,1.5067851 0 1 0 -3.01357,0 1.5067851,1.5067851 0 1 0 3.01357,0 z"
       style="fill:#00ff00;stroke:#00ff00;stroke-width:0.26458299"
       id="path991"
       inkscape:connector-curvature="0" />
    <path
       d="m 173.23019,133.70965 a 1.5067851,1.5067851 0 1 0 -3.01357,0 1.5067851,1.5067851 0 1 0 3.01357,0 z"
       style="fill:#00ff00;stroke:#00ff00;stroke-width:0.26458299"
       id="path995"
       inkscape:connector-curvature="0" />
    <text
       x="157.99384"
       y="50.952801"
       style="font-size:2.4870801px;font-family:Arial;fill:#000000;stroke-width:0.26458299"
       id="text999">
      <tspan
         style="stroke-width:0.26458299"
         y="50.952801"
         x="157.99384"
         sodipodi:role="line"
         id="tspan997">FM02</tspan>
    </text>
    <text
       x="98.58812"
       y="69.722519"
       style="font-size:2.4870801px;font-family:Arial;fill:#000000;stroke-width:0.26458299"
       id="text1003">
      <tspan
         style="stroke-width:0.26458299"
         y="69.722519"
         x="98.58812"
         sodipodi:role="line"
         id="tspan1001">FM06</tspan>
    </text>
    <text
       x="115.37283"
       y="83.290459"
       style="font-size:2.4870801px;font-family:Arial;fill:#000000;stroke-width:0.26458299"
       id="text1007">
      <tspan
         style="stroke-width:0.26458299"
         y="83.290459"
         x="115.37283"
         sodipodi:role="line"
         id="tspan1005">FM20</tspan>
    </text>
    <text
       x="151.75235"
       y="77.778114"
       style="font-size:2.4870801px;font-family:Arial;fill:#000000;stroke-width:0.26458299"
       id="text1011">
      <tspan
         style="stroke-width:0.26458299"
         y="77.778114"
         x="151.75235"
         sodipodi:role="line"
         id="tspan1009">FM12</tspan>
    </text>
    <text
       x="157.68657"
       y="80.797646"
       style="font-size:2.4870801px;font-family:Arial;fill:#000000;stroke-width:0.26458299"
       id="text1015">
      <tspan
         style="stroke-width:0.26458299"
         y="80.797646"
         x="157.68657"
         sodipodi:role="line"
         id="tspan1013">FM11</tspan>
    </text>
    <text
       x="78.982948"
       y="130.35179"
       style="font-size:2.4870801px;font-family:Arial;fill:#000000;stroke-width:0.26458299"
       id="text1019">
      <tspan
         style="stroke-width:0.26458299"
         y="130.35179"
         x="78.982948"
         sodipodi:role="line"
         id="tspan1017">FM07</tspan>
    </text>
    <text
       x="105.37974"
       y="144.252"
       style="font-size:2.4870801px;font-family:Arial;fill:#000000;stroke-width:0.26458299"
       id="text1023">
      <tspan
         style="stroke-width:0.26458299"
         y="144.252"
         x="105.37974"
         sodipodi:role="line"
         id="tspan1021">FM29</tspan>
    </text>
    <text
       x="128.05013"
       y="165.54544"
       style="font-size:2.4870801px;font-family:Arial;fill:#000000;stroke-width:0.26458299"
       id="text1027">
      <tspan
         style="stroke-width:0.26458299"
         y="165.54544"
         x="128.05013"
         sodipodi:role="line"
         id="tspan1025">FM08</tspan>
    </text>
    <text
       x="180.46107"
       y="137.58041"
       style="font-size:2.4870801px;font-family:Arial;fill:#000000;stroke-width:0.26458299"
       id="text1031">
      <tspan
         style="stroke-width:0.26458299"
         y="137.58041"
         x="180.46107"
         sodipodi:role="line"
         id="tspan1029">FM09</tspan>
    </text>
    <text
       x="195.19849"
       y="71.657135"
       style="font-size:2.4870801px;font-family:Arial;fill:#000000;stroke-width:0.26458299"
       id="text1035">
      <tspan
         style="stroke-width:0.26458299"
         y="71.657135"
         x="195.19849"
         sodipodi:role="line"
         id="tspan1033">FM10</tspan>
    </text>
    <text
       x="169.96457"
       y="50.710911"
       style="font-size:2.4870801px;font-family:Arial;fill:#000000;stroke-width:0.26458299"
       id="text1039">
      <tspan
         style="stroke-width:0.26458299"
         y="50.710911"
         x="169.96457"
         sodipodi:role="line"
         id="tspan1037">FH02</tspan>
    </text>
    <text
       x="169.87129"
       y="65.916008"
       style="font-size:2.4870801px;font-family:Arial;fill:#000000;stroke-width:0.26458299"
       id="text1043">
      <tspan
         style="stroke-width:0.26458299"
         y="65.916008"
         x="169.87129"
         sodipodi:role="line"
         id="tspan1041">FH22</tspan>
    </text>
    <text
       x="195.78761"
       y="78.417534"
       style="font-size:2.4870801px;font-family:Arial;fill:#000000;stroke-width:0.26458299"
       id="text1047">
      <tspan
         style="stroke-width:0.26458299"
         y="78.417534"
         x="195.78761"
         sodipodi:role="line"
         id="tspan1045">FH10</tspan>
    </text>
    <text
       x="165.95341"
       y="89.982979"
       style="font-size:2.4870801px;font-family:Arial;fill:#000000;stroke-width:0.26458299"
       id="text1051">
      <tspan
         style="stroke-width:0.26458299"
         y="89.982979"
         x="165.95341"
         sodipodi:role="line"
         id="tspan1049">FH11</tspan>
    </text>
    <text
       x="125.33181"
       y="96.937996"
       style="font-size:2.4870801px;font-family:Arial;fill:#000000;stroke-width:0.26458299"
       id="text1055">
      <tspan
         style="stroke-width:0.26458299"
         y="96.937996"
         x="125.33181"
         sodipodi:role="line"
         id="tspan1053">FH13</tspan>
    </text>
    <text
       x="132.29419"
       y="74.308044"
       style="font-size:2.4870801px;font-family:Arial;fill:#000000;stroke-width:0.26458299"
       id="text1059">
      <tspan
         style="stroke-width:0.26458299"
         y="74.308044"
         x="132.29419"
         sodipodi:role="line"
         id="tspan1057">FH21</tspan>
    </text>
    <text
       x="134.33055"
       y="59.945911"
       style="font-size:2.4870801px;font-family:Arial;fill:#000000;stroke-width:0.26458299"
       id="text1063">
      <tspan
         style="stroke-width:0.26458299"
         y="59.945911"
         x="134.33055"
         sodipodi:role="line"
         id="tspan1061">FH03</tspan>
    </text>
    <text
       x="107.52217"
       y="66.316254"
       style="font-size:2.4870801px;font-family:Arial;fill:#000000;stroke-width:0.26458299"
       id="text1067">
      <tspan
         style="stroke-width:0.26458299"
         y="66.316254"
         x="107.52217"
         sodipodi:role="line"
         id="tspan1065">FH06</tspan>
    </text>
    <text
       x="105.82833"
       y="80.991035"
       style="font-size:2.4870801px;font-family:Arial;fill:#000000;stroke-width:0.26458299"
       id="text1071">
      <tspan
         style="stroke-width:0.26458299"
         y="80.991035"
         x="105.82833"
         sodipodi:role="line"
         id="tspan1069">FH05</tspan>
    </text>
    <text
       x="80.837036"
       y="121.03523"
       style="font-size:2.4870801px;font-family:Arial;fill:#000000;stroke-width:0.26458299"
       id="text1075">
      <tspan
         style="stroke-width:0.26458299"
         y="121.03523"
         x="80.837036"
         sodipodi:role="line"
         id="tspan1073">FH07</tspan>
    </text>
    <text
       x="100.69778"
       y="129.57674"
       style="font-size:2.4870801px;font-family:Arial;fill:#000000;stroke-width:0.26458299"
       id="text1079">
      <tspan
         style="stroke-width:0.26458299"
         y="129.57674"
         x="100.69778"
         sodipodi:role="line"
         id="tspan1077">FH20</tspan>
    </text>
    <text
       x="75.958595"
       y="161.86975"
       style="font-size:2.4870801px;font-family:Arial;fill:#000000;stroke-width:0.26458299"
       id="text1083">
      <tspan
         style="stroke-width:0.26458299"
         y="161.86975"
         x="75.958595"
         sodipodi:role="line"
         id="tspan1081">FH30</tspan>
    </text>
    <text
       x="113.0276"
       y="166.60986"
       style="font-size:2.4870801px;font-family:Arial;fill:#000000;stroke-width:0.26458299"
       id="text1087">
      <tspan
         style="stroke-width:0.26458299"
         y="166.60986"
         x="113.0276"
         sodipodi:role="line"
         id="tspan1085">FH08</tspan>
    </text>
    <text
       x="167.47037"
       y="139.83725"
       style="font-size:2.4870801px;font-family:Arial;fill:#000000;stroke-width:0.26458299"
       id="text1091">
      <tspan
         style="stroke-width:0.26458299"
         y="139.83725"
         x="167.47037"
         sodipodi:role="line"
         id="tspan1089">FH09</tspan>
    </text>
    <text
       x="196.35072"
       y="63.295017"
       style="font-size:2.4870801px;font-family:Arial;fill:#000000;stroke-width:0.26458299"
       id="text1095">
      <tspan
         style="stroke-width:0.26458299"
         y="63.295017"
         x="196.35072"
         sodipodi:role="line"
         id="tspan1093">FH23</tspan>
    </text>
    <path
       d="m 197.17874,58.959147 a 1.5067851,1.5067851 0 1 0 -3.01357,0 1.5067851,1.5067851 0 1 0 3.01357,0 z"
       style="fill:#00ff00;stroke:#00ff00;stroke-width:0.26458299"
       id="path1099"
       inkscape:connector-curvature="0" />
    <text
       x="124.33984"
       y="105.77096"
       style="font-size:2.4870801px;font-family:Arial;fill:#000000;stroke-width:0.26458299"
       id="text1103">
      <tspan
         style="stroke-width:0.26458299"
         y="105.77096"
         x="124.33984"
         sodipodi:role="line"
         id="tspan1101">FM13</tspan>
    </text>
    <path
       d="m 144.75048,72.837849 a 1.5067851,1.5067851 0 1 0 -3.01357,0 1.5067851,1.5067851 0 1 0 3.01357,0 z"
       style="fill:#00ff00;stroke:#00ff00;stroke-width:0.26458299"
       id="path1107"
       inkscape:connector-curvature="0" />
    <text
       x="138.19206"
       y="76.474022"
       style="font-size:2.4870801px;font-family:Arial;fill:#000000;stroke-width:0.26458299"
       id="text1111">
      <tspan
         style="stroke-width:0.26458299"
         y="76.474022"
         x="138.19206"
         sodipodi:role="line"
         id="tspan1109">FH12</tspan>
    </text>
    <path
       d="m 165.69273,55.901854 a 2.78143,2.78143 0 1 0 -5.56286,0 2.78143,2.78143 0 1 0 5.56286,0 z"
       style="fill:#ff0000;stroke:#ff0000;stroke-width:0.26458299"
       id="path1133"
       inkscape:connector-curvature="0" />
    <path
       d="m 108.50648,73.572219 a 2.7814278,2.7814278 0 1 0 -5.56285,0 2.7814278,2.7814278 0 1 0 5.56285,0 z"
       style="fill:#ff0000;stroke:#ff0000;stroke-width:0.26458299"
       id="path1139"
       inkscape:connector-curvature="0" />
    <path
       d="m 117.75599,77.235836 a 2.78143,2.78143 0 1 0 -5.56286,0 2.78143,2.78143 0 1 0 5.56286,0 z"
       style="fill:#ff0000;stroke:#ff0000;stroke-width:0.26458299"
       id="path1145"
       inkscape:connector-curvature="0" />
    <path
       d="m 92.562509,129.80324 a 2.7814283,2.7814283 0 1 0 -5.562856,0 2.7814283,2.7814283 0 1 0 5.562856,0 z"
       style="fill:#ff0000;stroke:#ff0000;stroke-width:0.26458299"
       id="path1151"
       inkscape:connector-curvature="0" />
    <path
       d="m 109.30217,150.73876 a 2.78143,2.78143 0 1 0 -5.56286,0 2.78143,2.78143 0 1 0 5.56286,0 z"
       style="fill:#ff0000;stroke:#ff0000;stroke-width:0.26458299"
       id="path1157"
       inkscape:connector-curvature="0" />
    <path
       d="m 132.58978,157.62843 a 2.78143,2.78143 0 1 0 -5.56286,0 2.78143,2.78143 0 1 0 5.56286,0 z"
       style="fill:#ff0000;stroke:#ff0000;stroke-width:0.26458299"
       id="path1163"
       inkscape:connector-curvature="0" />
    <path
       d="m 183.39357,130.31101 a 2.7814278,2.7814278 0 1 0 -5.56285,0 2.7814278,2.7814278 0 1 0 5.56285,0 z"
       style="fill:#ff0000;stroke:#ff0000;stroke-width:0.26458299"
       id="path1169"
       inkscape:connector-curvature="0" />
    <path
       d="m 194.15961,71.116105 a 2.78143,2.78143 0 1 0 -5.56286,0 2.78143,2.78143 0 1 0 5.56286,0 z"
       style="fill:#ff0000;stroke:#ff0000;stroke-width:0.26458299"
       id="path1175"
       inkscape:connector-curvature="0" />
    <path
       d="m 159.57392,84.747677 a 2.78143,2.78143 0 1 0 -5.56286,0 2.78143,2.78143 0 1 0 5.56286,0 z"
       style="fill:#ff0000;stroke:#ff0000;stroke-width:0.26458299"
       id="path1181"
       inkscape:connector-curvature="0" />
    <path
       d="m 149.08453,77.75475 a 2.78143,2.78143 0 0 0 -5.56286,0 2.78143,2.78143 0 0 0 5.56286,0 z"
       style="fill:#ff0000;stroke-width:0.26458299"
       id="path1183"
       inkscape:connector-curvature="0" />
    <path
       d="m 140.81863,101.75014 a 2.7814278,2.7814278 0 1 0 -5.56285,0 2.7814278,2.7814278 0 1 0 5.56285,0 z"
       style="fill:#ff0000;stroke:#ff0000;stroke-width:0.26458299"
       id="path1193"
       inkscape:connector-curvature="0" />
    <path
       d="m 87.806547,68.425016 c 1.922825,0.49415 3.564673,1.747715 5.480368,2.33207 2.194922,0.66953 4.749342,0.460545 6.529795,1.98226 0.64177,0.548508 1.18299,1.32188 1.28264,2.098862 0.12998,1.013397 -0.49119,2.032934 -1.04943,3.031691 -1.479464,2.646953 -2.51689,5.147956 -3.614712,7.695832 -2.757811,6.400456 -5.896764,13.096703 -7.346022,20.055839 -1.42119,6.82434 -1.217501,13.90144 -1.749051,20.87203 -0.262711,3.44511 -0.705017,6.8642 -1.404202,10.25615 -0.861944,4.18154 -2.11428,8.32183 -3.959559,12.13173 -1.102143,2.27556 -2.415807,4.43326 -3.731313,6.6464 -2.813555,4.73339 -5.635529,9.7204 -9.911299,12.94299 -2.999666,2.26081 -6.714852,3.65322 -10.727523,3.96452 -3.324175,0.25789 -6.852507,-0.22616 -9.211678,-2.21547 -1.768276,-1.49105 -2.879717,-3.82775 -3.498106,-6.17999 -0.763233,-2.90319 -0.775388,-5.83004 -0.583018,-8.74526"
       style="fill:none;stroke:#00ff00;stroke-width:0.26458299"
       id="path1197"
       inkscape:connector-curvature="0" />
    <path
       d="m 90.910298,62.745801 c 5.388001,1.729456 10.778752,3.339018 16.268522,4.850706 2.41374,0.664658 4.84662,1.310394 7.31337,1.492525 3.85383,0.284544 7.79034,-0.562487 11.52359,-1.786582 4.86331,-1.594626 9.38171,-3.829138 13.99859,-5.899922 4.92421,-2.208629 9.96044,-4.231007 15.14913,-5.746221 2.45772,-0.71771 4.94964,-1.321631 7.46262,-1.79103 8.73469,-1.631551 17.72371,-1.637876 26.64157,-1.343273 7.12291,0.235307 14.20043,0.662595 21.26849,1.268647 7.0378,0.603459 14.06623,1.384156 21.11923,2.014909 3.16132,0.282718 6.32756,0.535312 9.44301,1.119393"
       style="fill:none;stroke:#00ff00;stroke-width:0.26458299"
       id="path1201"
       inkscape:connector-curvature="0" />
    <path
       d="m 147.26436,88.242251 c -1.05834,2.170713 -1.27416,4.635852 -1.49253,7.089495 -0.36556,4.107478 -0.73826,8.182754 -0.18656,12.126804 0.56519,4.0405 2.10055,7.94327 4.29101,11.66035 1.34972,2.29042 2.94818,4.51033 5.22383,5.59697 1.46325,0.69871 3.20648,0.92886 4.85071,0.83955 4.43474,-0.24091 8.14922,-2.80591 12.4999,-4.47758 4.08829,-1.57085 8.73834,-2.35289 11.28722,-5.31712 1.73078,-2.01283 2.49272,-5.03187 2.98505,-7.92904 0.4934,-2.90349 0.71601,-5.68459 -0.18657,-8.488774 -0.35546,-1.104358 -0.88544,-2.212295 -1.67909,-2.891767 -1.4852,-1.271529 -3.8938,-1.042593 -6.15667,-1.119393 -6.86269,-0.232913 -12.38498,-3.277841 -18.19014,-5.410404 -2.47249,-0.908283 -4.99629,-1.651064 -7.64919,-2.611919 -1.15292,-0.417574 -2.33022,-0.876335 -3.45147,-0.652979 -0.49288,0.09818 -0.97492,0.328171 -1.39924,0.652979 -0.34995,0.267883 -0.66063,0.600257 -0.77798,1.008205"
       style="fill:none;stroke:#00ff00;stroke-width:0.26458299"
       id="path1203"
       inkscape:connector-curvature="0" />
    <path
       d="m 184.23922,86.447363 c -4.75007,-0.576115 -9.45358,-1.541177 -14.17898,-2.238788 -5.22221,-0.770953 -10.47115,-1.215263 -15.67151,-2.462665 -0.46417,-0.111339 -0.92794,-0.229074 -1.34328,-0.447757 -0.80727,-0.425048 -1.43154,-1.231455 -1.79103,-2.089536 -0.41356,-0.987176 -0.47666,-2.04274 -0.44776,-3.134302 0.10237,-3.865253 1.35843,-8.181869 4.2537,-10.373049 2.25818,-1.709021 5.51355,-2.125077 8.43277,-2.313414 2.59863,-0.167654 4.93088,-0.154859 7.76113,-0.59701 2.7135,-0.423913 5.88477,-1.266017 7.46262,-0.07463 1.59574,1.204895 1.56174,4.489643 1.86566,7.313372 0.37254,3.461334 1.25284,6.229946 2.01491,9.029777 0.49397,1.814862 0.93827,3.642842 1.7164,5.746221 0.18734,0.506394 0.39402,1.02875 0.15322,1.435664 -0.0445,0.07511 -0.10415,0.14629 -0.17215,0.203454"
       style="fill:none;stroke:#00ff00;stroke-width:0.26458299"
       id="path1205"
       inkscape:connector-curvature="0" />
    <path
       d="m 138.2364,74.947677 c 0.0334,-0.511733 -0.24777,-1.059381 -0.59701,-1.417898 -1.2867,-1.320888 -3.49768,-0.07448 -5.59697,0.895515 -6.69323,3.092691 -12.25095,3.37557 -16.86553,6.492483 -4.3306,2.925096 -7.83057,8.346141 -9.85066,13.805855 -3.18126,8.597998 -2.69241,17.291908 -4.40295,26.343108 -1.07881,5.70842 -3.032443,11.55897 -1.343275,16.7909 1.215115,3.76365 4.315305,7.20717 7.910385,9.17903 2.272,1.24617 4.74165,1.90458 7.388,2.01491 2.27132,0.0947 4.67282,-0.21434 6.41785,-1.4179 1.55822,-1.07471 2.59301,-2.86265 3.88057,-4.40295 2.28226,-2.73025 5.35869,-4.68238 8.35814,-6.19397 3.14678,-1.58585 6.20886,-2.68683 9.70141,-4.99996 0.72631,-0.48104 1.47123,-1.01449 1.56715,-1.64178 0.0945,-0.61807 -0.44103,-1.32722 -0.97014,-2.01491 -4.0993,-5.32783 -7.81283,-9.3669 -9.40291,-14.55212 -1.5146,-4.93907 -1.10257,-10.91809 -0.59701,-16.492439 0.49228,-5.42794 1.07325,-10.4722 3.20893,-15.746137 0.88113,-2.175893 2.0269,-4.390882 1.34327,-6.492483"
       style="fill:none;stroke:#00ff00;stroke-width:0.26458299"
       id="path1207"
       inkscape:connector-curvature="0" />
    <g
       transform="matrix(0.26458333,0,0,0.26458333,-45.194664,47.722211)"
       id="g1219"
       inkscape:label="koleje">
      <path
         id="path1211"
         style="fill:none;stroke:#000000"
         d="m 649.95007,-34.002316 c 6.1447,14.703386 8.33664,30.708762 9.64044,46.825034 3.13374,38.735991 1.13673,78.112624 -11.70625,114.308172 -7.57586,21.35113 -18.92571,41.59537 -24.10112,63.35151 -5.78457,24.31683 -3.85571,50.5224 1.3772,75.74638 6.42133,30.95244 17.81786,60.42684 35.11878,86.07543 18.30817,27.14185 43.22824,49.99945 70.92615,68.17174 26.20206,17.19087 54.89003,30.18883 84.69822,38.56179 40.92673,11.4961 83.96525,14.27345 126.70304,16.52649 48.61708,2.56298 96.84497,4.44748 145.29537,4.13162"
         inkscape:connector-curvature="0" />
      <path
         id="path1213"
         style="fill:none;stroke:#000000"
         d="m 645.31075,134.01169 c 17.42375,-47.140823 42.80543,-90.848807 68.85331,-134.133581 2.32468,-3.86301 4.65466,-7.72265 7.33335,-11.282078 9.71623,-12.910893 24.02026,-21.871943 38.35907,-30.179561 20.16371,-11.682448 40.3962,-22.072738 62.05143,-29.333404 17.69679,-5.933463 36.34374,-9.776881 55.00013,-11.000027"
         inkscape:connector-curvature="0" />
      <path
         id="path1215"
         style="fill:none;stroke:#000000"
         d="m 653.82587,491.47265 c -41.59057,-3.06457 -83.78376,-10.76907 -121.88281,-28.23274 -36.71187,-16.82782 -69.62232,-42.7171 -94.33867,-75.05777 -17.36555,-22.72235 -30.68619,-48.62935 -36.49598,-76.43498 -6.68002,-31.97055 -3.43062,-66.45111 7.57464,-97.09309 15.39184,-42.85557 45.95455,-78.20266 72.99196,-114.996772 10.70822,-14.572375 20.86346,-29.371723 32.73745,-42.875226"
         inkscape:connector-curvature="0" />
      <path
         id="path1217"
         style="fill:none;stroke:#000000"
         d="m 633.85637,523.83701 c -27.62845,-2.94583 -54.94601,-9.39621 -81.2552,-18.59229 -25.37047,-8.86796 -49.80324,-20.28918 -72.30337,-35.11877 -37.95321,-25.01458 -70.40748,-59.727 -90.20705,-101.22471 -16.35109,-34.27008 -24.07172,-73.16771 -19.96949,-110.17655 5.28703,-47.69772 30.2125,-92.25805 57.84268,-132.21186 16.92921,-24.47998 34.87379,-47.230621 53.71107,-70.237548 11.10773,-13.566431 22.52586,-27.221973 28.92135,-43.382017"
         inkscape:connector-curvature="0" />
    </g>
    <g
       transform="translate(-4.74187,8.9045071)"
       id="g1855">
      <path
         id="path1221"
         style="fill:#ffff00;stroke-width:0.26458299"
         d="m 194.49832,42.592848 -3.31185,3.31185 3.31185,3.31185 3.31185,-3.31185 z"
         inkscape:connector-curvature="0" />
      <path
         id="path1223"
         style="fill:none;stroke:#000000;stroke-width:0.26458299"
         d="m 194.49832,42.592848 -3.31185,3.31185 3.31185,3.31185 3.31185,-3.31185 z"
         inkscape:connector-curvature="0" />
    </g>
    <g
       transform="translate(0,6.879167)"
       id="g1875">
      <path
         id="path1225"
         style="fill:#ffff00;stroke-width:0.26458299"
         d="m 173.93657,49.882537 -3.31185,3.31185 3.31185,3.311851 3.31186,-3.311851 z"
         inkscape:connector-curvature="0" />
      <path
         id="path1227"
         style="fill:none;stroke:#000000;stroke-width:0.26458299"
         d="m 173.93657,49.882537 -3.31185,3.31185 3.31185,3.311851 3.31186,-3.311851 z"
         inkscape:connector-curvature="0" />
    </g>
    <g
       transform="translate(0,6.879167)"
       id="g1871">
      <path
         id="path1233"
         style="fill:#ffff00;stroke-width:0.26458299"
         d="m 152.14094,130.14778 -3.31185,3.31185 3.31185,3.31185 3.31185,-3.31185 z"
         inkscape:connector-curvature="0" />
      <path
         id="path1235"
         style="fill:none;stroke:#000000;stroke-width:0.26458299"
         d="m 152.14094,130.14778 -3.31185,3.31185 3.31185,3.31185 3.31185,-3.31185 z"
         inkscape:connector-curvature="0" />
    </g>
    <g
       transform="translate(0,6.879167)"
       id="g1859">
      <path
         id="path1237"
         style="fill:#ffff00;stroke-width:0.26458299"
         d="m 197.99368,94.049242 -3.31185,3.311848 3.31185,3.31185 3.31185,-3.31185 z"
         inkscape:connector-curvature="0" />
      <path
         id="path1239"
         style="fill:none;stroke:#000000;stroke-width:0.26458299"
         d="m 197.99368,94.049242 -3.31185,3.311848 3.31185,3.31185 3.31185,-3.31185 z"
         inkscape:connector-curvature="0" />
    </g>
    <g
       transform="translate(0,6.879167)"
       id="g1867">
      <path
         id="path1241"
         style="fill:#ffff00;stroke-width:0.26458299"
         d="m 89.016585,126.78989 -3.311851,3.31185 3.311851,3.31185 3.31185,-3.31185 z"
         inkscape:connector-curvature="0" />
      <path
         id="path1243"
         style="fill:none;stroke:#000000;stroke-width:0.26458299"
         d="m 89.016585,126.78989 -3.311851,3.31185 3.311851,3.31185 3.31185,-3.31185 z"
         inkscape:connector-curvature="0" />
    </g>
    <g
       transform="translate(0,6.879167)"
       id="g1879">
      <path
         id="path1245"
         style="fill:#d6d6d6;stroke-width:0.26458299"
         d="m 193.11094,54.67098 h -6.62532 l 3.31266,5.737697 z"
         inkscape:connector-curvature="0" />
      <path
         id="path1247"
         style="fill:none;stroke:#ff0000;stroke-width:0.50270802"
         d="m 193.11094,54.67098 h -6.62532 l 3.31266,5.737697 z"
         inkscape:connector-curvature="0" />
    </g>
    <g
       id="g1895">
      <path
         id="path1249"
         style="fill:#d6d6d6;stroke-width:0.26458299"
         d="m 151.52974,70.784174 h -6.62532 l 3.31266,5.737697 z"
         inkscape:connector-curvature="0" />
      <path
         id="path1251"
         style="fill:none;stroke:#ff0000;stroke-width:0.50270802"
         d="m 151.52974,70.784174 h -6.62532 l 3.31266,5.737697 z"
         inkscape:connector-curvature="0" />
    </g>
    <g
       id="g1891">
      <path
         id="path1253"
         style="fill:#d6d6d6;stroke-width:0.26458299"
         d="m 149.01666,121.70146 h -6.62532 l 3.31266,5.7377 z"
         inkscape:connector-curvature="0" />
      <path
         id="path1255"
         style="fill:none;stroke:#ff0000;stroke-width:0.50270802"
         d="m 149.01666,121.70146 h -6.62532 l 3.31266,5.7377 z"
         inkscape:connector-curvature="0" />
    </g>
    <g
       id="g1887">
      <path
         id="path1257"
         style="fill:#d6d6d6;stroke-width:0.26458299"
         d="m 92.681302,151.20866 h -6.625323 l 3.312663,5.7377 z"
         inkscape:connector-curvature="0" />
      <path
         id="path1259"
         style="fill:none;stroke:#ff0000;stroke-width:0.50270802"
         d="m 92.681302,151.20866 h -6.625323 l 3.312663,5.7377 z"
         inkscape:connector-curvature="0" />
    </g>
    <text
       id="text1883"
       y="17.56572"
       x="92.126358"
       style="font-style:normal;font-weight:normal;font-size:10.58329964px;line-height:125%;font-family:sans-serif;letter-spacing:0px;word-spacing:0px;fill:#000000;fill-opacity:1;stroke:none;stroke-width:0.26458299px;stroke-linecap:butt;stroke-linejoin:miter;stroke-opacity:1"
       xml:space="preserve"><tspan
         style="stroke-width:0.26458299px"
         y="17.56572"
         x="92.126358"
         id="tspan1881"
         sodipodi:role="line">Faller plán Předměstí</tspan></text>
    <text
       id="text1899"
       y="66.002701"
       x="117.29479"
       style="font-style:normal;font-weight:normal;font-size:2.82222009px;line-height:125%;font-family:sans-serif;letter-spacing:0px;word-spacing:0px;fill:#000000;fill-opacity:1;stroke:none;stroke-width:0.26458299px;stroke-linecap:butt;stroke-linejoin:miter;stroke-opacity:1"
       xml:space="preserve"><tspan
         style="font-style:normal;font-variant:normal;font-weight:normal;font-stretch:normal;font-size:2.82222009px;font-family:Arial;-inkscape-font-specification:Arial;stroke-width:0.26458299px"
         y="66.002701"
         x="117.29479"
         id="tspan1897"
         sodipodi:role="line">V3</tspan></text>
    <text
       xml:space="preserve"
       style="font-style:normal;font-weight:normal;font-size:2.8222301px;line-height:125%;font-family:sans-serif;letter-spacing:0px;word-spacing:0px;fill:#000000;fill-opacity:1;stroke:none;stroke-width:0.26458299px;stroke-linecap:butt;stroke-linejoin:miter;stroke-opacity:1"
       x="147.4669"
       y="54.851131"
       id="text1899-8"><tspan
         sodipodi:role="line"
         id="tspan1897-2"
         x="147.4669"
         y="54.851131"
         style="font-style:normal;font-variant:normal;font-weight:normal;font-stretch:normal;font-size:2.8222301px;font-family:Arial;-inkscape-font-specification:Arial;stroke-width:0.26458299px">V1</tspan></text>
    <text
       xml:space="preserve"
       style="font-style:normal;font-weight:normal;font-size:2.8222301px;line-height:125%;font-family:sans-serif;letter-spacing:0px;word-spacing:0px;fill:#000000;fill-opacity:1;stroke:none;stroke-width:0.26458299px;stroke-linecap:butt;stroke-linejoin:miter;stroke-opacity:1"
       x="203.05896"
       y="96.411545"
       id="text1899-4"><tspan
         sodipodi:role="line"
         id="tspan1897-0"
         x="203.05896"
         y="96.411545"
         style="font-style:normal;font-variant:normal;font-weight:normal;font-stretch:normal;font-size:2.8222301px;font-family:Arial;-inkscape-font-specification:Arial;stroke-width:0.26458299px">V2</tspan></text>
    <text
       xml:space="preserve"
       style="font-style:normal;font-weight:normal;font-size:2.8222301px;line-height:125%;font-family:sans-serif;letter-spacing:0px;word-spacing:0px;fill:#000000;fill-opacity:1;stroke:none;stroke-width:0.26458299px;stroke-linecap:butt;stroke-linejoin:miter;stroke-opacity:1"
       x="78.778625"
       y="144.92097"
       id="text1899-84"><tspan
         sodipodi:role="line"
         id="tspan1897-1"
         x="78.778625"
         y="144.92097"
         style="font-style:normal;font-variant:normal;font-weight:normal;font-stretch:normal;font-size:2.8222301px;font-family:Arial;-inkscape-font-specification:Arial;stroke-width:0.26458299px">V4</tspan></text>
    <text
       x="127.13335"
       y="120.61598"
       style="font-size:2.4870801px;font-family:Arial;fill:#000000;stroke-width:0.26458299"
       id="text1103-3">
      <tspan
         style="stroke-width:0.26458299"
         y="120.61598"
         x="127.13335"
         sodipodi:role="line"
         id="tspan1101-6">FM14</tspan>
    </text>
    <path
       d="m 143.61214,117.12431 a 2.7814278,2.7814278 0 1 0 -5.56285,0 2.7814278,2.7814278 0 1 0 5.56285,0 z"
       style="fill:#ff0000;stroke:#ff0000;stroke-width:0.26458299"
       id="path1193-7"
       inkscape:connector-curvature="0" />
    <path
       style="fill:none;stroke:#ff0000;stroke-width:0.24275267px;stroke-linecap:butt;stroke-linejoin:miter;stroke-opacity:1"
       d="m 193.12182,54.809204 35.52726,2.71353"
       id="path181"
       inkscape:connector-curvature="0" />
    <path
       d="m 202.76074,55.317761 a 1.5067851,1.5067851 0 1 0 -3.01357,0 1.5067851,1.5067851 0 1 0 3.01357,0 z"
       style="fill:#00ff00;stroke:#00ff00;stroke-width:0.26458299"
       id="path943-3"
       inkscape:connector-curvature="0" />
    <path
       d="m 225.07774,57.12183 a 1.5067851,1.5067851 0 1 0 -3.01357,0 1.5067851,1.5067851 0 1 0 3.01357,0 z"
       style="fill:#00ff00;stroke:#00ff00;stroke-width:0.26458299"
       id="path943-6"
       inkscape:connector-curvature="0" />
    <text
       x="198.24168"
       y="51.452339"
       style="font-size:2.4870801px;font-family:Arial;fill:#000000;stroke-width:0.26458299"
       id="text1039-7">
      <tspan
         style="stroke-width:0.26458299"
         y="51.452339"
         x="198.24168"
         sodipodi:role="line"
         id="tspan1037-5">FHA0</tspan>
    </text>
    <text
       x="219.8237"
       y="53.724133"
       style="font-size:2.4870801px;font-family:Arial;fill:#000000;stroke-width:0.26458299"
       id="text1039-3">
      <tspan
         style="stroke-width:0.26458299"
         y="53.724133"
         x="219.8237"
         sodipodi:role="line"
         id="tspan1037-56">FHA2</tspan>
    </text>
    <path
       d="m 228.81951,55.718908 a 0.83861128,0.83861128 0 1 0 -1.67722,0 0.83861128,0.83861128 0 1 0 1.67722,0 z"
       style="fill:#ffff00;fill-opacity:1;stroke:none;stroke-width:0.14725542;stroke-opacity:1"
       id="path943-6-2"
       inkscape:connector-curvature="0" />
    <text
       x="229.10651"
       y="54.607937"
       style="font-size:2.4870801px;font-family:Arial;fill:#000000;stroke-width:0.26458299"
       id="text1039-3-9">
      <tspan
         style="stroke-width:0.26458299"
         y="54.607937"
         x="229.10651"
         sodipodi:role="line"
         id="tspan1037-56-1">FHA1-autobus</tspan>
    </text>
  </g>
</svg>
