<?xml version="1.0" encoding="UTF-8" standalone="no"?>
<svg
   xmlns:dc="http://purl.org/dc/elements/1.1/"
   xmlns:cc="http://creativecommons.org/ns#"
   xmlns:rdf="http://www.w3.org/1999/02/22-rdf-syntax-ns#"
   xmlns:svg="http://www.w3.org/2000/svg"
   xmlns="http://www.w3.org/2000/svg"
   xmlns:sodipodi="http://sodipodi.sourceforge.net/DTD/sodipodi-0.dtd"
   xmlns:inkscape="http://www.inkscape.org/namespaces/inkscape"
   sodipodi:docname="predmesti.svg"
   inkscape:version="0.92.4 (5da689c313, 2019-01-14)"
   id="svg8"
   version="1.1"
   viewBox="0 0 210 200"
   height="200mm"
   width="210mm">
  <defs
     id="defs2">
    <inkscape:path-effect
       effect="spiro"
       id="path-effect1038"
       is_visible="true" />
    <inkscape:path-effect
       effect="spiro"
       id="path-effect1034"
       is_visible="true" />
    <inkscape:path-effect
       effect="bspline"
       id="path-effect1026"
       is_visible="true"
       weight="33.333333"
       steps="2"
       helper_size="0"
       apply_no_weight="true"
       apply_with_weight="true"
       only_selected="false" />
    <marker
       id="DistanceX"
       orient="auto"
       refX="0"
       refY="0"
       style="overflow:visible">
      <path
         d="M 3,-3 -3,3 M 0,-5 V 5"
         style="stroke:#000000;stroke-width:0.5"
         id="path833"
         inkscape:connector-curvature="0" />
    </marker>
    <pattern
       id="Hatch"
       patternUnits="userSpaceOnUse"
       width="8"
       height="8"
       x="0"
       y="0">
      <path
         d="M8 4 l-4,4"
         stroke="#000000"
         stroke-width="0.25"
         linecap="square"
         id="path836" />
      <path
         d="M6 2 l-4,4"
         stroke="#000000"
         stroke-width="0.25"
         linecap="square"
         id="path838" />
      <path
         d="M4 0 l-4,4"
         stroke="#000000"
         stroke-width="0.25"
         linecap="square"
         id="path840" />
    </pattern>
    <marker
       id="DistanceX-0"
       orient="auto"
       refX="0"
       refY="0"
       style="overflow:visible">
      <path
         d="M 3,-3 -3,3 M 0,-5 V 5"
         style="stroke:#000000;stroke-width:0.5"
         id="path868"
         inkscape:connector-curvature="0" />
    </marker>
    <pattern
       id="Hatch-3"
       patternUnits="userSpaceOnUse"
       width="8"
       height="8"
       x="0"
       y="0">
      <path
         d="M8 4 l-4,4"
         stroke="#000000"
         stroke-width="0.25"
         linecap="square"
         id="path871" />
      <path
         d="M6 2 l-4,4"
         stroke="#000000"
         stroke-width="0.25"
         linecap="square"
         id="path873" />
      <path
         d="M4 0 l-4,4"
         stroke="#000000"
         stroke-width="0.25"
         linecap="square"
         id="path875" />
    </pattern>
    <symbol
       id="*Model_Space" />
    <symbol
       id="*Paper_Space" />
    <symbol
       id="*Paper_Space0" />
  </defs>
  <sodipodi:namedview
     inkscape:window-maximized="1"
     inkscape:window-y="0"
     inkscape:window-x="0"
     inkscape:window-height="1182"
     inkscape:window-width="1920"
     showgrid="false"
     inkscape:document-rotation="0"
     inkscape:current-layer="layer1"
     inkscape:document-units="mm"
     inkscape:cy="412.2629"
     inkscape:cx="432.30943"
     inkscape:zoom="1.834116"
     inkscape:pageshadow="2"
     inkscape:pageopacity="0.0"
     borderopacity="1.0"
     bordercolor="#666666"
     pagecolor="#ffffff"
     id="base" />
  <metadata
     id="metadata5">
    <rdf:RDF>
      <cc:Work
         rdf:about="">
        <dc:format>image/svg+xml</dc:format>
        <dc:type
           rdf:resource="http://purl.org/dc/dcmitype/StillImage" />
        <dc:title />
      </cc:Work>
    </rdf:RDF>
  </metadata>
  <g
     id="layer1"
     inkscape:groupmode="layer"
     inkscape:label="Layer 1"
     transform="translate(0,-10)">
    <g
       transform="scale(0.26458333)"
       inkscape:label="0"
       id="g847" />
    <g
       transform="matrix(0.26458333,0,0,0.26458333,-65.983355,42.732921)"
       id="g883"
       inkscape:label="0" />
    <g
       transform="matrix(0.26458333,0,0,0.26458333,-65.983355,42.732921)"
       id="g885"
       inkscape:label="fotopodklad" />
    <path
       d="m 45.808697,166.61486 6.713212,-8.32438 2.148227,-7.6083 -0.895094,-27.65843 2.237735,-10.29362 7.608306,-16.380241 5.28106,-6.086641 7.33977,-3.490871 22.19835,-7.339776 10.830657,-3.938417 2.98996,-1.050894"
       style="fill:none;stroke:#000000;stroke-width:0.26458299;stroke-dasharray:12.7, 6.35"
       id="path923"
       inkscape:connector-curvature="0" />
    <path
       d="m 54.670136,150.68218 c 0.05564,1.71929 1.273937,3.1782 2.508244,4.51001 1.874073,2.02212 3.785053,3.75124 5.970093,5.07459 3.39888,2.0585 7.46086,3.1352 11.71633,3.35818 4.33559,0.22718 8.872,-0.43183 12.08945,-2.8358 2.74121,-2.04814 4.525,-5.3629 6.94024,-7.985 1.71089,-1.85743 3.73862,-3.36727 5.89547,-4.62683 2.459047,-1.43604 5.085937,-2.54673 7.686517,-3.73131 3.06034,-1.39402 6.08426,-2.89035 9.17902,-4.10445 5.10191,-2.00151 10.39638,-3.23597 15.8954,-4.70145 4.40921,-1.17506 8.94994,-2.49864 12.08945,-5.52234 2.54633,-2.45241 4.17092,-6.0232 4.85071,-9.62679 0.69674,-3.69349 0.40097,-7.42146 -0.29851,-11.04472 -1.01437,-5.25437 -2.87772,-10.288564 -4.2537,-15.447638 -1.59188,-5.968611 -2.53142,-12.104354 -4.17907,-18.059552"
       style="fill:none;stroke:#000000;stroke-width:0.26458299;stroke-dasharray:12.7, 6.35"
       id="path933"
       inkscape:connector-curvature="0" />
    <path
       d="m 131.03572,66.310854 a 1.5067851,1.5067851 0 1 0 -3.01357,0 1.5067851,1.5067851 0 1 0 3.01357,0 z"
       style="fill:#00ff00;stroke:#00ff00;stroke-width:0.26458299"
       id="FH02"
       inkscape:connector-curvature="0"
       inkscape:label="#path943" />
    <path
       d="m 134.67328,70.893074 a 1.5067851,1.5067851 0 1 0 -3.01357,0 1.5067851,1.5067851 0 1 0 3.01357,0 z"
       style="fill:#00ff00;fill-opacity:1;stroke:#00ff00;stroke-width:0.26458299"
       id="FH22"
       inkscape:connector-curvature="0"
       inkscape:label="#path947" />
    <path
       d="m 152.18098,84.829133 a 1.5067851,1.5067851 0 1 0 -3.01357,0 1.5067851,1.5067851 0 1 0 3.01357,0 z"
       style="fill:#00ff00;stroke:#00ff00;stroke-width:0.26458299"
       id="FH10"
       inkscape:connector-curvature="0"
       inkscape:label="#path951" />
    <path
       d="m 125.33738,96.553333 a 1.5067851,1.5067851 0 1 0 -3.01357,0 1.5067851,1.5067851 0 1 0 3.01357,0 z"
       style="fill:#00ff00;stroke:#00ff00;stroke-width:0.26458299"
       id="FH11"
       inkscape:connector-curvature="0"
       inkscape:label="#path955" />
    <path
       d="m 104.35927,130.93798 a 1.5067851,1.5067851 0 1 0 -3.01357,0 1.5067851,1.5067851 0 1 0 3.01357,0 z"
       style="fill:#00ff00;fill-opacity:1;stroke:#00ff00;stroke-width:0.26458299"
       id="FH13"
       inkscape:connector-curvature="0"
       inkscape:label="#path959" />
    <path
       d="m 70.597073,81.851892 a 1.5067851,1.5067851 0 1 0 -3.01357,0 1.5067851,1.5067851 0 1 0 3.01357,0 z"
       style="fill:#00ff00;stroke:#00ff00;stroke-width:0.26458299"
       id="FH06"
       inkscape:connector-curvature="0"
       inkscape:label="#path963" />
    <path
       d="m 71.532172,84.742751 a 1.5067851,1.5067851 0 1 0 -3.01357,0 1.5067851,1.5067851 0 1 0 3.01357,0 z"
       style="fill:#00ff00;stroke:#00ff00;stroke-width:0.26458299"
       id="FH05"
       inkscape:connector-curvature="0"
       inkscape:label="#path967" />
    <path
       d="m 97.627753,80.199466 h -3.01357 z"
       style="fill:#00ff00;stroke-width:0.26458299"
       id="path969"
       inkscape:connector-curvature="0" />
    <path
       d="m 97.627753,80.199466 a 1.5067851,1.5067851 0 1 0 -3.01357,0 1.5067851,1.5067851 0 1 0 3.01357,0 z"
       style="fill:#00ff00;stroke:#00ff00;stroke-width:0.26458299"
       id="FH21"
       inkscape:connector-curvature="0"
       inkscape:label="#path971" />
    <path
       d="m 99.322953,73.988665 h -3.01357 z"
       style="fill:#00ff00;stroke-width:0.26458299"
       id="path973"
       inkscape:connector-curvature="0" />
    <path
       d="m 99.322953,73.988665 a 1.5067851,1.5067851 0 1 0 -3.01357,0 1.5067851,1.5067851 0 1 0 3.01357,0 z"
       style="fill:#00ff00;stroke:#00ff00;stroke-width:0.26458299"
       id="FH03"
       inkscape:connector-curvature="0"
       inkscape:label="#path975" />
    <path
       d="m 50.723113,130.81573 a 1.5067851,1.5067851 0 1 0 -3.01357,0 1.5067851,1.5067851 0 1 0 3.01357,0 z"
       style="fill:#00ff00;stroke:#00ff00;stroke-width:0.26458299"
       id="FH07"
       inkscape:connector-curvature="0"
       inkscape:label="#path979" />
    <path
       d="m 41.501236,167.06505 a 1.5067851,1.5067851 0 1 0 -3.01357,0 1.5067851,1.5067851 0 1 0 3.01357,0 z"
       style="fill:#00ff00;stroke:#00ff00;stroke-width:0.26458299"
       id="FH30"
       inkscape:connector-curvature="0"
       inkscape:label="#path983" />
    <path
       d="m 55.822145,139.71958 a 1.5067851,1.5067851 0 1 0 -3.01357,0 1.5067851,1.5067851 0 1 0 3.01357,0 z"
       style="fill:#00ff00;stroke:#00ff00;stroke-width:0.26458299"
       id="FH20"
       inkscape:connector-curvature="0"
       inkscape:label="#path987" />
    <path
       d="m 77.171883,171.48658 a 1.5067851,1.5067851 0 1 0 -3.01357,0 1.5067851,1.5067851 0 1 0 3.01357,0 z"
       style="fill:#00ff00;stroke:#00ff00;stroke-width:0.26458299"
       id="FH08"
       inkscape:connector-curvature="0"
       inkscape:label="#path991" />
    <path
       d="m 132.07069,144.40043 a 1.5067851,1.5067851 0 1 0 -3.01357,0 1.5067851,1.5067851 0 1 0 3.01357,0 z"
       style="fill:#00ff00;stroke:#00ff00;stroke-width:0.26458299"
       id="FH09"
       inkscape:connector-curvature="0"
       inkscape:label="#path995" />
    <text
       x="116.83433"
       y="61.643581"
       style="font-size:2.4870801px;font-family:Arial;fill:#000000;stroke-width:0.26458299"
       id="text999">
      <tspan
         style="stroke-width:0.26458299"
         y="61.643581"
         x="116.83433"
         sodipodi:role="line"
         id="tspan997">FM02</tspan>
    </text>
    <text
       x="57.428612"
       y="80.4133"
       style="font-size:2.4870801px;font-family:Arial;fill:#000000;stroke-width:0.26458299"
       id="text1003">
      <tspan
         style="stroke-width:0.26458299"
         y="80.4133"
         x="57.428612"
         sodipodi:role="line"
         id="tspan1001">FM06</tspan>
    </text>
    <text
       x="74.213326"
       y="93.981239"
       style="font-size:2.4870801px;font-family:Arial;fill:#000000;stroke-width:0.26458299"
       id="text1007">
      <tspan
         style="stroke-width:0.26458299"
         y="93.981239"
         x="74.213326"
         sodipodi:role="line"
         id="tspan1005">FM20</tspan>
    </text>
    <text
       x="110.59285"
       y="88.468895"
       style="font-size:2.4870801px;font-family:Arial;fill:#000000;stroke-width:0.26458299"
       id="text1011">
      <tspan
         style="stroke-width:0.26458299"
         y="88.468895"
         x="110.59285"
         sodipodi:role="line"
         id="tspan1009">FM12</tspan>
    </text>
    <text
       x="116.52707"
       y="91.488426"
       style="font-size:2.4870801px;font-family:Arial;fill:#000000;stroke-width:0.26458299"
       id="text1015">
      <tspan
         style="stroke-width:0.26458299"
         y="91.488426"
         x="116.52707"
         sodipodi:role="line"
         id="tspan1013">FM11</tspan>
    </text>
    <text
       x="37.823441"
       y="141.04257"
       style="font-size:2.4870801px;font-family:Arial;fill:#000000;stroke-width:0.26458299"
       id="text1019">
      <tspan
         style="stroke-width:0.26458299"
         y="141.04257"
         x="37.823441"
         sodipodi:role="line"
         id="tspan1017">FM07</tspan>
    </text>
    <text
       x="64.22023"
       y="154.94278"
       style="font-size:2.4870801px;font-family:Arial;fill:#000000;stroke-width:0.26458299"
       id="text1023">
      <tspan
         style="stroke-width:0.26458299"
         y="154.94278"
         x="64.22023"
         sodipodi:role="line"
         id="tspan1021">FM29</tspan>
    </text>
    <text
       x="86.890617"
       y="176.23622"
       style="font-size:2.4870801px;font-family:Arial;fill:#000000;stroke-width:0.26458299"
       id="text1027">
      <tspan
         style="stroke-width:0.26458299"
         y="176.23622"
         x="86.890617"
         sodipodi:role="line"
         id="tspan1025">FM08</tspan>
    </text>
    <text
       x="139.30157"
       y="148.27119"
       style="font-size:2.4870801px;font-family:Arial;fill:#000000;stroke-width:0.26458299"
       id="text1031">
      <tspan
         style="stroke-width:0.26458299"
         y="148.27119"
         x="139.30157"
         sodipodi:role="line"
         id="tspan1029">FM09</tspan>
    </text>
    <text
       x="153.10355"
       y="79.675217"
       style="font-size:2.4870801px;font-family:Arial;fill:#000000;stroke-width:0.26458299"
       id="text1035">
      <tspan
         style="stroke-width:0.26458299"
         y="79.675217"
         x="153.10355"
         sodipodi:role="line"
         id="tspan1033">FM10</tspan>
    </text>
    <text
       x="128.80507"
       y="61.401691"
       style="font-size:2.4870801px;font-family:Arial;fill:#000000;stroke-width:0.26458299"
       id="text1039">
      <tspan
         style="stroke-width:0.26458299"
         y="61.401691"
         x="128.80507"
         sodipodi:role="line"
         id="tspan1037">FH02</tspan>
    </text>
    <text
       x="128.71178"
       y="76.606789"
       style="font-size:2.4870801px;font-family:Arial;fill:#000000;stroke-width:0.26458299"
       id="text1043">
      <tspan
         style="stroke-width:0.26458299"
         y="76.606789"
         x="128.71178"
         sodipodi:role="line"
         id="tspan1041">FH22</tspan>
    </text>
    <text
       x="153.95995"
       y="85.767448"
       style="font-size:2.4870801px;font-family:Arial;fill:#000000;stroke-width:0.26458299"
       id="text1047">
      <tspan
         style="stroke-width:0.26458299"
         y="85.767448"
         x="153.95995"
         sodipodi:role="line"
         id="tspan1045">FH10</tspan>
    </text>
    <text
       x="124.79391"
       y="100.67376"
       style="font-size:2.4870801px;font-family:Arial;fill:#000000;stroke-width:0.26458299"
       id="text1051">
      <tspan
         style="stroke-width:0.26458299"
         y="100.67376"
         x="124.79391"
         sodipodi:role="line"
         id="tspan1049">FH11</tspan>
    </text>
    <text
       x="90.231079"
       y="135.03752"
       style="font-size:2.4870801px;font-family:Arial;fill:#000000;stroke-width:0.26458299"
       id="text1055">
      <tspan
         style="stroke-width:0.26458299"
         y="135.03752"
         x="90.231079"
         sodipodi:role="line"
         id="tspan1053">FH13</tspan>
    </text>
    <text
       x="91.134682"
       y="84.998825"
       style="font-size:2.4870801px;font-family:Arial;fill:#000000;stroke-width:0.26458299"
       id="text1059">
      <tspan
         style="stroke-width:0.26458299"
         y="84.998825"
         x="91.134682"
         sodipodi:role="line"
         id="tspan1057">FH21</tspan>
    </text>
    <text
       x="93.171043"
       y="70.636696"
       style="font-size:2.4870801px;font-family:Arial;fill:#000000;stroke-width:0.26458299"
       id="text1063">
      <tspan
         style="stroke-width:0.26458299"
         y="70.636696"
         x="93.171043"
         sodipodi:role="line"
         id="tspan1061">FH03</tspan>
    </text>
    <text
       x="66.362663"
       y="77.007034"
       style="font-size:2.4870801px;font-family:Arial;fill:#000000;stroke-width:0.26458299"
       id="text1067">
      <tspan
         style="stroke-width:0.26458299"
         y="77.007034"
         x="66.362663"
         sodipodi:role="line"
         id="tspan1065">FH06</tspan>
    </text>
    <text
       x="64.668823"
       y="91.681816"
       style="font-size:2.4870801px;font-family:Arial;fill:#000000;stroke-width:0.26458299"
       id="text1071">
      <tspan
         style="stroke-width:0.26458299"
         y="91.681816"
         x="64.668823"
         sodipodi:role="line"
         id="tspan1069">FH05</tspan>
    </text>
    <text
       x="39.677528"
       y="131.72601"
       style="font-size:2.4870801px;font-family:Arial;fill:#000000;stroke-width:0.26458299"
       id="text1075">
      <tspan
         style="stroke-width:0.26458299"
         y="131.72601"
         x="39.677528"
         sodipodi:role="line"
         id="tspan1073">FH07</tspan>
    </text>
    <text
       x="59.538269"
       y="140.26752"
       style="font-size:2.4870801px;font-family:Arial;fill:#000000;stroke-width:0.26458299"
       id="text1079">
      <tspan
         style="stroke-width:0.26458299"
         y="140.26752"
         x="59.538269"
         sodipodi:role="line"
         id="tspan1077">FH20</tspan>
    </text>
    <text
       x="34.799088"
       y="172.56053"
       style="font-size:2.4870801px;font-family:Arial;fill:#000000;stroke-width:0.26458299"
       id="text1083">
      <tspan
         style="stroke-width:0.26458299"
         y="172.56053"
         x="34.799088"
         sodipodi:role="line"
         id="tspan1081">FH30</tspan>
    </text>
    <text
       x="71.868095"
       y="177.30064"
       style="font-size:2.4870801px;font-family:Arial;fill:#000000;stroke-width:0.26458299"
       id="text1087">
      <tspan
         style="stroke-width:0.26458299"
         y="177.30064"
         x="71.868095"
         sodipodi:role="line"
         id="tspan1085">FH08</tspan>
    </text>
    <text
       x="126.31086"
       y="150.52803"
       style="font-size:2.4870801px;font-family:Arial;fill:#000000;stroke-width:0.26458299"
       id="text1091">
      <tspan
         style="stroke-width:0.26458299"
         y="150.52803"
         x="126.31086"
         sodipodi:role="line"
         id="tspan1089">FH09</tspan>
    </text>
    <text
       x="155.19122"
       y="73.985802"
       style="font-size:2.4870801px;font-family:Arial;fill:#000000;stroke-width:0.26458299"
       id="text1095">
      <tspan
         style="stroke-width:0.26458299"
         y="73.985802"
         x="155.19122"
         sodipodi:role="line"
         id="tspan1093">FH23</tspan>
    </text>
    <path
       d="m 156.01924,69.649928 a 1.5067851,1.5067851 0 1 0 -3.01357,0 1.5067851,1.5067851 0 1 0 3.01357,0 z"
       style="fill:#00ff00;stroke:#00ff00;stroke-width:0.26458299"
       id="FH23"
       inkscape:connector-curvature="0"
       inkscape:label="#path1099" />
    <text
       x="83.180336"
       y="116.46174"
       style="font-size:2.4870801px;font-family:Arial;fill:#000000;stroke-width:0.26458299"
       id="text1103">
      <tspan
         style="stroke-width:0.26458299"
         y="116.46174"
         x="83.180336"
         sodipodi:role="line"
         id="tspan1101">FM13</tspan>
    </text>
    <path
       d="m 103.59098,83.52863 a 1.50679,1.50679 0 1 0 -3.01358,0 1.50679,1.50679 0 1 0 3.01358,0 z"
       style="fill:#00ff00;stroke:#00ff00;stroke-width:0.26458299"
       id="FH12"
       inkscape:connector-curvature="0"
       inkscape:label="#path1107" />
    <text
       x="93.065498"
       y="88.318855"
       style="font-size:2.4870801px;font-family:Arial;fill:#000000;stroke-width:0.26458299"
       id="text1111">
      <tspan
         style="stroke-width:0.26458299"
         y="88.318855"
         x="93.065498"
         sodipodi:role="line"
         id="tspan1109">FH12</tspan>
    </text>
    <path
       d="m 124.53323,66.592635 a 2.78143,2.78143 0 1 0 -5.56286,0 2.78143,2.78143 0 1 0 5.56286,0 z"
       style="fill:#ff0000;stroke:#ff0000;stroke-width:0.26458299"
       id="FM02"
       inkscape:connector-curvature="0"
       inkscape:label="#path1133" />
    <path
       d="m 65.543766,86.210464 a 2.7814278,2.7814278 0 1 0 -5.56285,0 2.7814278,2.7814278 0 1 0 5.56285,0 z"
       style="fill:#ff0000;stroke:#ff0000;stroke-width:0.26458299"
       id="FM06"
       inkscape:connector-curvature="0"
       inkscape:label="#path1139" />
    <path
       d="m 76.596483,87.926617 a 2.78143,2.78143 0 1 0 -5.56286,0 2.78143,2.78143 0 1 0 5.56286,0 z"
       style="fill:#ff0000;stroke:#ff0000;stroke-width:0.26458299"
       id="FM20"
       inkscape:connector-curvature="0"
       inkscape:label="#path1145" />
    <path
       d="m 51.403002,140.49402 a 2.7814283,2.7814283 0 1 0 -5.562856,0 2.7814283,2.7814283 0 1 0 5.562856,0 z"
       style="fill:#ff0000;stroke:#ff0000;stroke-width:0.26458299"
       id="FM07"
       inkscape:connector-curvature="0"
       inkscape:label="#path1151" />
    <path
       d="m 68.142663,161.42954 a 2.78143,2.78143 0 1 0 -5.56286,0 2.78143,2.78143 0 1 0 5.56286,0 z"
       style="fill:#ff0000;stroke:#ff0000;stroke-width:0.26458299"
       id="FM29"
       inkscape:connector-curvature="0"
       inkscape:label="#path1157" />
    <path
       d="m 91.430273,168.31921 a 2.78143,2.78143 0 1 0 -5.56286,0 2.78143,2.78143 0 1 0 5.56286,0 z"
       style="fill:#ff0000;stroke:#ff0000;stroke-width:0.26458299"
       id="FM08"
       inkscape:connector-curvature="0"
       inkscape:label="#path1163" />
    <path
       d="m 142.23407,141.00179 a 2.7814278,2.7814278 0 1 0 -5.56285,0 2.7814278,2.7814278 0 1 0 5.56285,0 z"
       style="fill:#ff0000;stroke:#ff0000;stroke-width:0.26458299"
       id="FM09"
       inkscape:connector-curvature="0"
       inkscape:label="#path1169" />
    <path
       d="m 151.7974,77.931478 a 2.78143,2.78143 0 1 0 -5.56286,0 2.78143,2.78143 0 1 0 5.56286,0 z"
       style="fill:#ff0000;stroke:#ff0000;stroke-width:0.26458299"
       id="FM10"
       inkscape:connector-curvature="0"
       inkscape:label="#path1175" />
    <path
       d="m 116.97185,95.005688 a 2.78143,2.78143 0 1 0 -5.56286,0 2.78143,2.78143 0 1 0 5.56286,0 z"
       style="fill:#ff0000;stroke:#ff0000;stroke-width:0.26458299"
       id="FM11"
       inkscape:connector-curvature="0"
       inkscape:label="#path1181" />
    <path
       d="m 109.3676,88.157018 a 2.781435,2.781435 0 0 0 -5.56287,0 2.781435,2.781435 0 0 0 5.56287,0 z"
       style="fill:#ff0000;stroke-width:0.26458299"
       id="FM12"
       inkscape:connector-curvature="0"
       inkscape:label="#path1183" />
    <path
       d="m 99.659123,112.44092 a 2.7814278,2.7814278 0 1 0 -5.56285,0 2.7814278,2.7814278 0 1 0 5.56285,0 z"
       style="fill:#ff0000;stroke:#ff0000;stroke-width:0.26458299"
       id="FM13"
       inkscape:connector-curvature="0"
       inkscape:label="#path1193" />
    <path
       d="m 46.64704,79.115797 c 1.922825,0.49415 3.564673,1.747715 5.480368,2.33207 2.194922,0.66953 4.749342,0.460545 6.529795,1.98226 0.64177,0.548508 1.18299,1.32188 1.28264,2.098862 0.12998,1.013397 -0.49119,2.032934 -1.04943,3.031691 -1.479464,2.646953 -2.51689,5.147956 -3.614712,7.695832 -2.757811,6.400458 -5.896764,13.096698 -7.346022,20.055838 -1.42119,6.82434 -1.217501,13.90144 -1.749051,20.87203 -0.262711,3.44511 -0.705017,6.8642 -1.404202,10.25615 -0.861944,4.18154 -2.11428,8.32183 -3.959559,12.13173 -1.102143,2.27556 -2.415807,4.43326 -3.731313,6.6464 -2.813555,4.73339 -5.635529,9.7204 -9.911299,12.94299 -2.999666,2.26081 -6.714852,3.65322 -10.727523,3.96452 -3.324175,0.25789 -6.852507,-0.22616 -9.211678,-2.21547 -1.768276,-1.49105 -2.879717,-3.82775 -3.498106,-6.17999 -0.7632329,-2.90319 -0.7753879,-5.83004 -0.5830179,-8.74526"
       style="fill:none;stroke:#00ff00;stroke-width:0.26458299"
       id="path1197"
       inkscape:connector-curvature="0" />
    <path
       d="m 49.750791,73.436582 c 5.388001,1.729456 10.778752,3.339018 16.268522,4.850706 2.41374,0.664658 4.84662,1.310394 7.31337,1.492525 3.85383,0.284544 7.79034,-0.562487 11.52359,-1.786582 4.86331,-1.594626 9.38171,-3.829138 13.99859,-5.899922 4.924217,-2.208629 9.960447,-4.231007 15.149137,-5.746221 2.45772,-0.71771 4.94964,-1.321631 7.46262,-1.79103 8.73469,-1.631551 17.72371,-1.637876 26.64157,-1.343273 7.12291,0.235307 14.20043,0.662595 21.26849,1.268647 7.0378,0.603459 14.06623,1.384156 21.11923,2.014909 3.16132,0.282718 6.32756,0.535312 9.44301,1.119393"
       style="fill:none;stroke:#00ff00;stroke-width:0.26458299"
       id="path1201"
       inkscape:connector-curvature="0" />
    <path
       d="m 106.10486,98.933032 c -1.05834,2.170708 -1.27416,4.635848 -1.49253,7.089498 -0.36556,4.10747 -0.73826,8.18275 -0.18656,12.1268 0.56519,4.0405 2.10055,7.94327 4.29101,11.66035 1.34972,2.29042 2.94818,4.51033 5.22383,5.59697 1.46325,0.69871 3.20648,0.92886 4.85071,0.83955 4.43474,-0.24091 8.14922,-2.80591 12.4999,-4.47758 4.08829,-1.57085 8.73834,-2.35289 11.28722,-5.31712 1.73078,-2.01283 2.49272,-5.03187 2.98505,-7.92904 0.4934,-2.90349 0.71601,-5.68459 -0.18657,-8.48877 -0.35546,-1.10436 -0.88544,-2.2123 -1.67909,-2.89177 -1.4852,-1.27153 -3.8938,-1.04259 -6.15667,-1.11939 -6.86269,-0.23292 -12.38498,-3.27784 -18.19014,-5.41041 -2.47249,-0.908279 -4.99629,-1.651061 -7.64919,-2.611916 -1.15292,-0.417574 -2.33022,-0.876335 -3.45147,-0.652979 -0.49288,0.09818 -0.97492,0.328171 -1.39924,0.652979 -0.34995,0.267883 -0.66063,0.600257 -0.77798,1.008205"
       style="fill:none;stroke:#00ff00;stroke-width:0.26458299"
       id="path1203"
       inkscape:connector-curvature="0" />
    <path
       d="m 143.07972,97.138144 c -4.75007,-0.576115 -9.45358,-1.541177 -14.17898,-2.238788 -5.22221,-0.770953 -10.47115,-1.215263 -15.67151,-2.462665 -0.46417,-0.111339 -0.92794,-0.229074 -1.34328,-0.447757 -0.80727,-0.425048 -1.43154,-1.231455 -1.79103,-2.089536 -0.41356,-0.987176 -0.47666,-2.04274 -0.44776,-3.134302 0.10237,-3.865253 1.35843,-8.181869 4.2537,-10.373049 2.25818,-1.709021 5.51355,-2.125077 8.43277,-2.313414 2.59863,-0.167654 4.93088,-0.154859 7.76113,-0.59701 2.7135,-0.423913 5.88477,-1.266017 7.46262,-0.07463 1.59574,1.204895 1.56174,4.489643 1.86566,7.313372 0.37254,3.461334 1.25284,6.229946 2.01491,9.029777 0.49397,1.814862 0.93827,3.642842 1.7164,5.746221 0.18734,0.506394 0.39402,1.02875 0.15322,1.435664 -0.0445,0.07511 -0.10415,0.14629 -0.17215,0.203454"
       style="fill:none;stroke:#00ff00;stroke-width:0.26458299"
       id="path1205"
       inkscape:connector-curvature="0" />
    <path
       d="m 97.076893,85.638458 c 0.0334,-0.511733 -0.24777,-1.059381 -0.59701,-1.417898 -1.2867,-1.320888 -3.49768,-0.07448 -5.59697,0.895515 -6.69323,3.092691 -12.25095,3.37557 -16.86553,6.492483 -4.3306,2.925096 -7.83057,8.346143 -9.85066,13.805852 -3.18126,8.598 -2.69241,17.29191 -4.40295,26.34311 -1.07881,5.70842 -3.032443,11.55897 -1.343275,16.7909 1.215115,3.76365 4.315305,7.20717 7.910385,9.17903 2.272,1.24617 4.74165,1.90458 7.388,2.01491 2.27132,0.0947 4.67282,-0.21434 6.41785,-1.4179 1.55822,-1.07471 2.59301,-2.86265 3.88057,-4.40295 2.28226,-2.73025 5.35869,-4.68238 8.35814,-6.19397 3.14678,-1.58585 6.20886,-2.68683 9.701407,-4.99996 0.72632,-0.48104 1.47124,-1.01449 1.56716,-1.64178 0.0945,-0.61807 -0.44103,-1.32722 -0.97014,-2.01491 -4.099307,-5.32783 -7.812837,-9.3669 -9.402917,-14.55212 -1.5146,-4.93907 -1.10257,-10.91809 -0.59701,-16.49244 0.49228,-5.42794 1.07325,-10.472198 3.20893,-15.746135 0.88113,-2.175893 2.0269,-4.390882 1.34327,-6.492483"
       style="fill:none;stroke:#00ff00;stroke-width:0.26458299"
       id="path1207"
       inkscape:connector-curvature="0" />
    <g
       transform="matrix(0.26458333,0,0,0.26458333,-86.354171,58.412992)"
       id="g1219"
       inkscape:label="koleje">
      <path
         id="path1211"
         style="fill:none;stroke:#000000"
         d="m 649.95007,-34.002316 c 6.1447,14.703386 8.33664,30.708762 9.64044,46.825034 3.13374,38.735991 1.13673,78.112624 -11.70625,114.308172 -7.57586,21.35113 -18.92571,41.59537 -24.10112,63.35151 -5.78457,24.31683 -3.85571,50.5224 1.3772,75.74638 6.42133,30.95244 17.81786,60.42684 35.11878,86.07543 18.30817,27.14185 43.22824,49.99945 70.92615,68.17174 26.20206,17.19087 54.89003,30.18883 84.69822,38.56179 40.92673,11.4961 83.96525,14.27345 126.70304,16.52649 48.61708,2.56298 96.84497,4.44748 145.29537,4.13162"
         inkscape:connector-curvature="0" />
      <path
         id="path1213"
         style="fill:none;stroke:#000000"
         d="m 645.31075,134.01169 c 17.42375,-47.140823 42.80543,-90.848807 68.85331,-134.133581 2.32468,-3.86301 4.65466,-7.72265 7.33335,-11.282078 9.71623,-12.910893 24.02026,-21.871943 38.35907,-30.179561 20.16371,-11.682448 40.3962,-22.072738 62.05143,-29.333404 17.69679,-5.933463 36.34374,-9.776881 55.00013,-11.000027"
         inkscape:connector-curvature="0" />
      <path
         id="path1215"
         style="fill:none;stroke:#000000"
         d="m 653.82587,491.47265 c -41.59057,-3.06457 -83.78376,-10.76907 -121.88281,-28.23274 -36.71187,-16.82782 -69.62232,-42.7171 -94.33867,-75.05777 -17.36555,-22.72235 -30.68619,-48.62935 -36.49598,-76.43498 -6.68002,-31.97055 -3.43062,-66.45111 7.57464,-97.09309 15.39184,-42.85557 45.95455,-78.20266 72.99196,-114.996772 10.70822,-14.572375 20.86346,-29.371723 32.73745,-42.875226"
         inkscape:connector-curvature="0" />
      <path
         id="path1217"
         style="fill:none;stroke:#000000"
         d="m 633.85637,523.83701 c -27.62845,-2.94583 -54.94601,-9.39621 -81.2552,-18.59229 -25.37047,-8.86796 -49.80324,-20.28918 -72.30337,-35.11877 -37.95321,-25.01458 -70.40748,-59.727 -90.20705,-101.22471 -16.35109,-34.27008 -24.07172,-73.16771 -19.96949,-110.17655 5.28703,-47.69772 30.2125,-92.25805 57.84268,-132.21186 16.92921,-24.47998 34.87379,-47.230621 53.71107,-70.237548 11.10773,-13.566431 22.52586,-27.221973 28.92135,-43.382017"
         inkscape:connector-curvature="0" />
    </g>
    <text
       id="text1883"
       y="28.256502"
       x="50.96685"
       style="font-style:normal;font-weight:normal;font-size:10.58329964px;line-height:125%;font-family:sans-serif;letter-spacing:0px;word-spacing:0px;fill:#000000;fill-opacity:1;stroke:none;stroke-width:0.26458299px;stroke-linecap:butt;stroke-linejoin:miter;stroke-opacity:1"
       xml:space="preserve"><tspan
         style="stroke-width:0.26458299px"
         y="28.256502"
         x="50.96685"
         id="tspan1881"
         sodipodi:role="line">Faller plán Předměstí</tspan></text>
    <text
       id="text1899"
       y="76.693481"
       x="76.135284"
       style="font-style:normal;font-weight:normal;font-size:2.82222009px;line-height:125%;font-family:sans-serif;letter-spacing:0px;word-spacing:0px;fill:#000000;fill-opacity:1;stroke:none;stroke-width:0.26458299px;stroke-linecap:butt;stroke-linejoin:miter;stroke-opacity:1"
       xml:space="preserve"><tspan
         style="font-style:normal;font-variant:normal;font-weight:normal;font-stretch:normal;font-size:2.82222009px;font-family:Arial;-inkscape-font-specification:Arial;stroke-width:0.26458299px"
         y="76.693481"
         x="76.135284"
         id="tspan1897"
         sodipodi:role="line">V3</tspan></text>
    <text
       xml:space="preserve"
       style="font-style:normal;font-weight:normal;font-size:2.8222301px;line-height:125%;font-family:sans-serif;letter-spacing:0px;word-spacing:0px;fill:#000000;fill-opacity:1;stroke:none;stroke-width:0.26458299px;stroke-linecap:butt;stroke-linejoin:miter;stroke-opacity:1"
       x="106.3074"
       y="66.62384"
       id="text1899-8"><tspan
         sodipodi:role="line"
         id="tspan1897-2"
         x="106.3074"
         y="66.62384"
         style="font-style:normal;font-variant:normal;font-weight:normal;font-stretch:normal;font-size:2.8222301px;font-family:Arial;-inkscape-font-specification:Arial;stroke-width:0.26458299px">V1</tspan></text>
    <text
       xml:space="preserve"
       style="font-style:normal;font-weight:normal;font-size:2.8222301px;line-height:125%;font-family:sans-serif;letter-spacing:0px;word-spacing:0px;fill:#000000;fill-opacity:1;stroke:none;stroke-width:0.26458299px;stroke-linecap:butt;stroke-linejoin:miter;stroke-opacity:1"
       x="158.78831"
       y="106.08228"
       id="text1899-4"><tspan
         sodipodi:role="line"
         id="tspan1897-0"
         x="158.78831"
         y="106.08228"
         style="font-style:normal;font-variant:normal;font-weight:normal;font-stretch:normal;font-size:2.8222301px;font-family:Arial;-inkscape-font-specification:Arial;stroke-width:0.26458299px">V2</tspan></text>
    <text
       xml:space="preserve"
       style="font-style:normal;font-weight:normal;font-size:2.8222301px;line-height:125%;font-family:sans-serif;letter-spacing:0px;word-spacing:0px;fill:#000000;fill-opacity:1;stroke:none;stroke-width:0.26458299px;stroke-linecap:butt;stroke-linejoin:miter;stroke-opacity:1"
       x="38.435158"
       y="146.83934"
       id="text1899-84"><tspan
         sodipodi:role="line"
         id="tspan1897-1"
         x="38.435158"
         y="146.83934"
         style="font-style:normal;font-variant:normal;font-weight:normal;font-stretch:normal;font-size:2.8222301px;font-family:Arial;-inkscape-font-specification:Arial;stroke-width:0.26458299px">V4</tspan></text>
    <text
       x="93.330925"
       y="139.89003"
       style="font-size:2.4870801px;font-family:Arial;fill:#000000;stroke-width:0.26458299"
       id="text1103-3">
      <tspan
         style="stroke-width:0.26458299"
         y="139.89003"
         x="93.330925"
         sodipodi:role="line"
         id="tspan1101-6">FM14</tspan>
    </text>
    <path
       d="m 109.18496,137.30154 a 2.78143,2.78143 0 1 0 -5.56286,0 2.78143,2.78143 0 1 0 5.56286,0 z"
       style="fill:#ff0000;stroke:#ff0000;stroke-width:0.26458299"
       id="FM14"
       inkscape:connector-curvature="0"
       inkscape:label="#path1193-7" />
    <path
       d="m 161.60124,66.008542 a 1.5067851,1.5067851 0 1 0 -3.01357,0 1.5067851,1.5067851 0 1 0 3.01357,0 z"
       style="fill:#00ff00;stroke:#00ff00;stroke-width:0.26458299"
       id="FHA0"
       inkscape:connector-curvature="0"
       inkscape:label="#path943-3" />
    <path
       d="m 183.91824,67.812611 a 1.5067851,1.5067851 0 1 0 -3.01357,0 1.5067851,1.5067851 0 1 0 3.01357,0 z"
       style="fill:#00ff00;stroke:#00ff00;stroke-width:0.26458299"
       id="FHA2"
       inkscape:connector-curvature="0"
       inkscape:label="#path943-6" />
    <text
       x="157.08218"
       y="62.14312"
       style="font-size:2.4870801px;font-family:Arial;fill:#000000;stroke-width:0.26458299"
       id="text1039-7">
      <tspan
         style="stroke-width:0.26458299"
         y="62.14312"
         x="157.08218"
         sodipodi:role="line"
         id="tspan1037-5">FHA0</tspan>
    </text>
    <text
       x="178.6642"
       y="64.414917"
       style="font-size:2.4870801px;font-family:Arial;fill:#000000;stroke-width:0.26458299"
       id="text1039-3">
      <tspan
         style="stroke-width:0.26458299"
         y="64.414917"
         x="178.6642"
         sodipodi:role="line"
         id="tspan1037-56">FHA2</tspan>
    </text>
    <path
       d="m 187.66001,66.409689 a 0.83861128,0.83861128 0 1 0 -1.67722,0 0.83861128,0.83861128 0 1 0 1.67722,0 z"
       style="fill:#ffff00;fill-opacity:1;stroke:none;stroke-width:0.14725542;stroke-opacity:1"
       id="FHA1"
       inkscape:connector-curvature="0"
       inkscape:label="#path943-6-2" />
    <text
       x="187.94701"
       y="65.298721"
       style="font-size:2.4870801px;font-family:Arial;fill:#000000;stroke-width:0.26458299"
       id="text1039-3-9">
      <tspan
         style="stroke-width:0.26458299"
         y="65.298721"
         x="187.94701"
         sodipodi:role="line"
         id="tspan1037-56-1">FHA1-autobus</tspan>
    </text>
    <path
       style="fill:none;stroke:#000000;stroke-width:0.26458299px;stroke-linecap:butt;stroke-linejoin:miter;stroke-opacity:1"
       d="m 198.58566,70.050833 c -0.5708,0 -14.66742,-2.238222 -14.66742,-2.238222"
       id="path166"
       inkscape:connector-curvature="0" />
    <path
       style="fill:none;stroke:#000000;stroke-width:0.26458299px;stroke-linecap:butt;stroke-linejoin:miter;stroke-opacity:1"
       d="M 180.44251,67.576926 161.60124,66.008542"
       id="FHA2FHA0"
       inkscape:connector-curvature="0" />
    <path
       style="fill:none;stroke:#000000;stroke-width:0.26458299px;stroke-linecap:butt;stroke-linejoin:miter;stroke-opacity:1"
       d="m 158.42235,65.81779 -27.38663,0.493062"
       id="FHA0FH02"
       inkscape:connector-curvature="0" />
    <path
       style="fill:none;stroke:#000000;stroke-width:0.26458299px;stroke-linecap:butt;stroke-linejoin:miter;stroke-opacity:1"
       d="m 128.10371,66.293048 -3.57048,0.299585"
       id="FH02FM02"
       inkscape:connector-curvature="0" />
    <path
       style="fill:none;stroke:#000000;stroke-width:0.10202392px;stroke-linecap:butt;stroke-linejoin:miter;stroke-opacity:1"
       d="m 103.53329,132.32597 1.54062,2.40992"
       id="FH13FM14"
       inkscape:connector-curvature="0"
       inkscape:label="#FH13FM14" />
    <path
       style="fill:none;stroke:#000000;stroke-width:0.26458299px;stroke-linecap:butt;stroke-linejoin:miter;stroke-opacity:1"
       d="m 132.07069,144.40043 5.44106,-1.99812"
       id="FH09FM09"
       inkscape:connector-curvature="0" />
    <path
       style="fill:none;stroke:#000000;stroke-width:0.0976306px;stroke-linecap:butt;stroke-linejoin:miter;stroke-opacity:1"
       d="m 150.39855,83.199455 -0.6568,-2.468795"
       id="FH10FM10"
       inkscape:connector-curvature="0" />
    <path
       style="fill:none;stroke:#000000;stroke-width:0.26458299px;stroke-linecap:butt;stroke-linejoin:miter;stroke-opacity:1"
       d="m 148.2919,75.206728 -1.85974,-5.262141 -5.50968,-3.071948 -9.88676,-0.561787"
       id="FM10FH02"
       inkscape:connector-curvature="0" />
    <path
       style="fill:none;stroke:#000000;stroke-width:0.23489092px;stroke-linecap:butt;stroke-linejoin:miter;stroke-opacity:1"
       d="M 122.21453,96.578535 116.9921,95.877786"
       id="FH11FM11"
       inkscape:connector-curvature="0" />
    <path
       style="fill:none;stroke:#000000;stroke-width:0.27021682px;stroke-linecap:butt;stroke-linejoin:miter;stroke-opacity:1"
       d="m 111.40217,94.017695 c 0,0 0,0 -5.39475,-5.572164 l 2.91408,-11.639701 1.60839,-2.362541 8.75213,-2.431711 11.51873,-0.822616 v 0 0 l 21.67847,-1.550632"
       id="FM11FH23"
       inkscape:connector-curvature="0"
       inkscape:label="#FM11FH23" />
    <path
       style="fill:none;stroke:#000000;stroke-width:0.26458299px;stroke-linecap:butt;stroke-linejoin:miter;stroke-opacity:1"
       d="m 156.01924,69.649928 25.13159,2.280925 16.89882,2.721695 0.20417,0.391991 -0.14562,-0.154617"
       id="path216"
       inkscape:connector-curvature="0" />
    <path
       style="fill:none;stroke:#000000;stroke-width:0.18578076px;stroke-linecap:butt;stroke-linejoin:miter;stroke-opacity:1"
       d="m 67.712794,82.436503 -2.703356,2.052956"
       id="FH06FM06"
       inkscape:connector-curvature="0" />
    <path
       style="fill:none;stroke:#000000;stroke-width:0.25765309px;stroke-linecap:butt;stroke-linejoin:miter;stroke-opacity:1"
       d="M 68.683499,85.658321 58.152652,97.132999 53.158981,110.70513 49.780089,129.12114"
       id="FH05FH07"
       inkscape:connector-curvature="0" />
    <path
       style="fill:none;stroke:#000000;stroke-width:0.2429647px;stroke-linecap:butt;stroke-linejoin:miter;stroke-opacity:1"
       d="m 60.95504,88.713331 -5.456006,9.963131 -4.355095,11.997338 -2.871493,19.18216"
       id="FM06FH07"
       inkscape:connector-curvature="0" />
    <path
       style="fill:none;stroke:#000000;stroke-width:0.26458299px;stroke-linecap:butt;stroke-linejoin:miter;stroke-opacity:1"
       d="m 49.064007,132.20151 -0.395126,5.74143"
       id="FH07FM07"
       inkscape:connector-curvature="0" />
    <path
       style="fill:none;stroke:#000000;stroke-width:0.26458299px;stroke-linecap:butt;stroke-linejoin:miter;stroke-opacity:1"
       d="m 77.171882,171.48658 9.119553,-1.65108"
       id="FH08FM08"
       inkscape:connector-curvature="0" />
    <path
       style="fill:none;stroke:#000000;stroke-width:0.25790387px;stroke-linecap:butt;stroke-linejoin:miter;stroke-opacity:1"
       d="m 91.377221,167.14847 10.673039,-11.59481 7.85201,-6.22978 8.37582,-1.77266 10.98713,-1.9986"
       id="FM08FH09"
       inkscape:connector-curvature="0" />
    <path
       style="fill:none;stroke:#000000;stroke-width:0.26103601px;stroke-linecap:butt;stroke-linejoin:miter;stroke-opacity:1"
       d="m 119.28719,68.11344 -11.44017,5.022133 -6.01435,10.680549 -5.189966,21.280338 v 0 c -0.146146,6.41076 -0.146146,6.41076 -0.146146,6.41076 l 2.692162,10.24936 2.89158,7.55761"
       id="FM02FH13"
       inkscape:connector-curvature="0" />
    <path
       style="fill:none;stroke:#000000;stroke-width:0.24130596px;stroke-linecap:butt;stroke-linejoin:miter;stroke-opacity:1"
       d="m 118.98364,67.47387 -13.18728,3.963819 -6.480651,2.564992"
       id="FM02FH03"
       inkscape:connector-curvature="0" />
    <path
       style="fill:none;stroke:#000000;stroke-width:0.26458299px;stroke-linecap:butt;stroke-linejoin:miter;stroke-opacity:1"
       d="m 48.86694,143.45246 2.3334,12.51856 5.132052,10.09322 10.837693,5.32927 6.625098,0.57711"
       id="FM07FH08"
       inkscape:connector-curvature="0" />
    <path
       style="fill:none;stroke:#000000;stroke-width:0.26458299px;stroke-linecap:butt;stroke-linejoin:miter;stroke-opacity:1"
       d="m 96.309383,73.988663 -21.9901,7.627689 -3.722212,0.23554"
       id="FH03FH06"
       inkscape:connector-curvature="0" />
    <path
       style="fill:none;stroke:#000000;stroke-width:0.28283301px;stroke-linecap:butt;stroke-linejoin:miter;stroke-opacity:1"
       d="m 96.309383,73.988665 -18.799467,6.97877 -5.977744,3.775316"
       id="FH03FH05"
       inkscape:connector-curvature="0" />
    <path
       style="fill:none;stroke:#000000;stroke-width:0.24589272px;stroke-linecap:butt;stroke-linejoin:miter;stroke-opacity:1"
       d="m 151.00705,86.405279 2.42588,6.453886 3.06603,11.152595 0.69016,4.92687 0.26836,12.8455 -0.78186,6.9822 -2.75619,3.8445 -5.21245,3.68356 -6.73239,3.53947 v 0 0"
       id="FM09FH10"
       inkscape:connector-curvature="0" />
    <path
       style="fill:none;stroke:#000000;stroke-width:0.2618911px;stroke-linecap:butt;stroke-linejoin:miter;stroke-opacity:1"
       d="m 141.8015,139.82913 2.88527,-1.61874 5.09032,-2.9778 2.90223,-2.29336 2.46998,-3.6635 0.76656,-6.91219 -0.47584,-12.11973 -2.55622,-3.64626 -2.6331,-4.29684 -5.84737,-2.17115 -7.52609,-0.774184 -6.92004,-1.179209 -3.31275,-1.621256 c -1.30707,-0.0016 -1.30707,-0.0016 -1.30707,-0.0016"
       id="FM09FH11"
       inkscape:connector-curvature="0" />
    <path
       style="fill:none;stroke:#000000;stroke-width:0.26902679px;stroke-linecap:butt;stroke-linejoin:miter;stroke-opacity:1"
       d="m 48.860068,143.45557 -8.116997,22.1528"
       id="FM07FH30"
       inkscape:connector-curvature="0"
       inkscape:label="#FM07FH30" />
    <path
       style="fill:none;stroke:#000000;stroke-width:0.26458332px;stroke-linecap:butt;stroke-linejoin:miter;stroke-opacity:1"
       d="m 107.8318,139.89129 c 0.27572,1.4861 1.04773,2.87572 2.16385,3.89493 0.9931,0.90688 2.23414,1.51238 3.52478,1.89044 1.29064,0.37806 2.63514,0.53784 3.97657,0.63405 3.93202,0.282 7.90214,0.0277 11.76606,-0.75357"
       id="FM14FH09"
       inkscape:connector-curvature="0"
       inkscape:path-effect="#path-effect1038"
       inkscape:original-d="m 107.8318,139.89129 c 0.72155,1.29805 1.44284,2.59636 2.16385,3.89493 0.72102,1.29857 5.00116,1.68273 7.50135,2.52449 2.50018,0.84176 7.8443,-0.50265 11.76606,-0.75357"
       transform="matrix(0.98562356,0,0,0.81473618,1.5412503,25.918684)" />
  </g>
</svg>
