<svg width="800" height="600">

  <rect x="0" y="0" width="800" height="600"
    style="fill:white;stroke:black;stroke-width:0"
  />

  <!-- vjzed -->
  <line x1="10"  y1="10"  x2="10"  y2="100" style="stroke:black;stroke-width:2" />
  <line x1="10"  y1="100" x2="45"  y2="150" style="stroke:black;stroke-width:2" />

  <!-- dokončení smyčky-->
  <line x1="55"  y1="140" x2="90"  y2="90"  style="stroke:black;stroke-width:2" />
  <line x1="90"  y1="30"  x2="90"  y2="90"  style="stroke:black;stroke-width:2" />
  <line x1="90"  y1="30"  x2="100" y2="20"  style="stroke:black;stroke-width:2" />
  <line x1="100" y1="20"  x2="740" y2="20"  style="stroke:black;stroke-width:2" />
  <line x1="750" y1="30"  x2="740" y2="20"  style="stroke:black;stroke-width:2" />
  <line x1="750" y1="30"  x2="750" y2="570" style="stroke:black;stroke-width:2" />
  <line x1="740" y1="580" x2="750" y2="570" style="stroke:black;stroke-width:2" />
  <line x1="60"  y1="580" x2="740" y2="580" style="stroke:black;stroke-width:2" />
  <line x1="50"  y1="570" x2="60"  y2="580" style="stroke:black;stroke-width:2" />
  
  <!-- výjzed -->
  <line x1="50"  y1="10"  x2="50"  y2="570" style="stroke:black;stroke-width:2" />

  <!-- koej 1 -->
  <line x1="140" y1="580" x2="160"  y2="550" style="stroke:black;stroke-width:2" />
  <line x1="160" y1="550" x2="190"  y2="50"  style="stroke:black;stroke-width:2" />
  <line x1="190" y1="50"  x2="210"  y2="25"  style="stroke:black;stroke-width:2" />

  <!-- koej 2 -->
  <line x1="240" y1="580" x2="260"  y2="550" style="stroke:black;stroke-width:2" />
  <line x1="260" y1="550" x2="290"  y2="50"  style="stroke:black;stroke-width:2" />
  <line x1="290" y1="50"  x2="310"  y2="25"  style="stroke:black;stroke-width:2" />

  <!-- koej 3 -->
  <line x1="340" y1="580" x2="360"  y2="550" style="stroke:black;stroke-width:2" />
  <line x1="360" y1="550" x2="390"  y2="50"  style="stroke:black;stroke-width:2" />
  <line x1="390" y1="50"  x2="410"  y2="25"  style="stroke:black;stroke-width:2" />

</svg>

